<svg xmlns="http://www.w3.org/2000/svg" height="325.44" width="982.08" xml:space="preserve"><defs><clipPath id="a" clipPathUnits="userSpaceOnUse"><path d="M0 3.4h736.56v240.68H0Z"/></clipPath><clipPath id="b" clipPathUnits="userSpaceOnUse"><path d="M0 0h736.56v244.08H0Z"/></clipPath></defs><g clip-path="url(#a)" transform="matrix(1.33333 0 0 -1.33333 0 325.44)"><g clip-path="url(#b)"><path style="fill:#008cff;fill-opacity:1;fill-rule:nonzero;stroke:none" d="M4.11 5.6c-12.71 0 17.42 129.7 109.95 116.48C137 118.8 187.22 83.83 246.8 83.83c41.61 33.27 28.31 141.04 151.83 118.99 37.92-6.77 55.4-38.19 70.63-65.38 4.72-8.42 33.32-41.38 45.21-43.5 55.91-9.98 123.93 75.48 179.78 25.61 18.85-16.83-30.14-72.18-12.74-88.74 11.12-10.6 67.79-13.73 48.62-27.42"/><path style="fill:#4ddd4d;fill-opacity:1;fill-rule:nonzero;stroke:none" d="m647.84 74.08 1.34 8.05c36.13-6.75 19.84-50.97-10.16-46.35l4.05 8.97c22.06-.15 25.38 27.32 4.77 29.33z"/><path style="fill:none;stroke:#000;stroke-width:2;stroke-linecap:butt;stroke-linejoin:round;stroke-miterlimit:10;stroke-dasharray:none;stroke-opacity:1" d="m647.84 170 1.34-8.05c36.13 6.75 19.84 50.97-10.16 46.34l4.05-8.96c22.06.15 25.38-27.33 4.77-29.33z" transform="matrix(1 0 0 -1 0 244.08)"/><path style="fill:#4ddd4d;fill-opacity:1;fill-rule:nonzero;stroke:none" d="M597.97 88.12c.9-4.9.5-34.06 14.3-71.32 16.03.07-5.18-.08 25.46 0 10.52 20.69 13.58 71.32 13.58 71.32"/><path style="fill:none;stroke:#000;stroke-width:2;stroke-linecap:butt;stroke-linejoin:round;stroke-miterlimit:10;stroke-dasharray:none;stroke-opacity:1" d="M597.97 155.95c.9 4.9.5 34.07 14.3 71.33 16.03-.07-5.18.07 25.46 0 10.52-20.7 13.58-71.33 13.58-71.33" transform="matrix(1 0 0 -1 0 244.08)"/><path style="fill:#fff;fill-opacity:1;fill-rule:nonzero;stroke:none" d="M593.01 100.22c0 1.1.9 2 2 2h59.48a2 2 0 0 0 2-2V90.5a2 2 0 0 0-2-2H595a2 2 0 0 0-2 2v9.73z"/><path style="fill:none;stroke:#000;stroke-width:2;stroke-linecap:butt;stroke-linejoin:round;stroke-miterlimit:10;stroke-dasharray:none;stroke-opacity:1" d="M593.01 143.85c0-1.1.9-2 2-2h59.48a2 2 0 0 1 2 2v9.74a2 2 0 0 1-2 2H595a2 2 0 0 1-2-2v-9.74z" transform="matrix(1 0 0 -1 0 244.08)"/><path style="fill:#fff;fill-opacity:1;fill-rule:nonzero;stroke:none" d="M606.47 81.39c0 .12.1.21.22.21s.21-.1.21-.21v-16.9c0-.11-.1-.2-.21-.2-.12 0-.22.09-.22.2v16.9z"/><path style="fill:none;stroke:#fff;stroke-width:4;stroke-linecap:butt;stroke-linejoin:round;stroke-miterlimit:10;stroke-dasharray:none;stroke-opacity:1" d="M606.47 162.7c0-.13.1-.23.22-.23s.21.1.21.22v16.89c0 .12-.1.22-.21.22a.22.22 0 0 1-.22-.22v-16.89z" transform="matrix(1 0 0 -1 0 244.08)"/><path style="fill:none;stroke:#000;stroke-width:2;stroke-linecap:round;stroke-linejoin:round;stroke-miterlimit:10;stroke-dasharray:none;stroke-opacity:1" d="M631.29 100.28c-6.32 11.7 8.55 19.55-.47 37.23M624.19 100.28c-6.32 11.7 8.55 19.55-.47 37.23M617.09 100.28c-6.32 11.7 8.55 19.55-.47 37.23" transform="matrix(1 0 0 -1 0 244.08)"/><path style="fill:#1a0007;fill-opacity:1;fill-rule:nonzero;stroke:none" d="M256.66 29h222.47c5.22 0-.12-13.88-14.84-13.88H271.5c-14.6 0-18.25 13.87-14.84 13.87z"/><path style="fill:none;stroke:#1a0007;stroke-width:.0106314;stroke-linecap:butt;stroke-linejoin:round;stroke-miterlimit:10;stroke-dasharray:none;stroke-opacity:1" d="M256.66 215.08h222.47c5.22 0-.12 13.88-14.84 13.88H271.5c-14.6 0-18.25-13.88-14.84-13.88z" transform="matrix(1 0 0 -1 0 244.08)"/><path style="fill:#f9de0c;fill-opacity:1;fill-rule:nonzero;stroke:none" d="M273.53 148.71a8 8 0 0 0 8 8h173.5a8 8 0 0 0 8-8V42.13a8 8 0 0 0-8-8h-173.5a8 8 0 0 0-8 8v106.58z"/><path style="fill:none;stroke:#1a0007;stroke-width:4;stroke-linecap:butt;stroke-linejoin:round;stroke-miterlimit:10;stroke-dasharray:none;stroke-opacity:1" d="M273.53 95.37a8 8 0 0 1 8-8h173.5a8 8 0 0 1 8 8v106.57a8 8 0 0 1-8 8h-173.5a8 8 0 0 1-8-8V95.37z" transform="matrix(1 0 0 -1 0 244.08)"/><path style="fill:none;stroke:#1991e8;stroke-width:4;stroke-linecap:round;stroke-linejoin:round;stroke-miterlimit:10;stroke-dasharray:none;stroke-opacity:1" d="m349.61 214.88 30-.1" transform="matrix(1 0 0 -1 0 244.08)"/><path style="fill:#fff;fill-opacity:1;fill-rule:nonzero;stroke:none" d="M396.4 144.06a4 4 0 0 0 4 4h40.43a4 4 0 0 0 4-4V51.6a4 4 0 0 0-4-4H400.4a4 4 0 0 0-4 4v92.46z"/><path style="fill:none;stroke:#1a0007;stroke-width:2;stroke-linecap:butt;stroke-linejoin:round;stroke-miterlimit:10;stroke-dasharray:none;stroke-opacity:1" d="M396.4 100.01a4 4 0 0 1 4-4h40.43a4 4 0 0 1 4 4v92.46a4 4 0 0 1-4 4H400.4a4 4 0 0 1-4-4v-92.46z" transform="matrix(1 0 0 -1 0 244.08)"/><path style="fill:#000;fill-opacity:1;fill-rule:nonzero;stroke:none" d="M397.32 147.07h46.57v-9.83h-46.57v9.83z"/><path style="fill:#ff4d2b;fill-opacity:1;fill-rule:nonzero;stroke:none" d="M399.66 142.44a2.25 2.25 0 1 0 4.5 0 2.25 2.25 0 0 0-4.5 0z"/><path style="fill:#ff8900;fill-opacity:1;fill-rule:nonzero;stroke:none" d="M405.7 142.44a2.25 2.25 0 1 0 4.5 0 2.25 2.25 0 0 0-4.5 0z"/><path style="fill:none;stroke:#1a0007;stroke-width:2;stroke-linecap:round;stroke-linejoin:round;stroke-miterlimit:10;stroke-dasharray:none;stroke-opacity:1" d="m396.4 106.67 48.43.1" transform="matrix(1 0 0 -1 0 244.08)"/><path style="fill:#66f400;fill-opacity:1;fill-rule:nonzero;stroke:none" d="M411.74 142.44a2.25 2.25 0 1 0 4.5 0 2.25 2.25 0 0 0-4.5 0z"/><path style="fill:none;stroke:#1a0007;stroke-width:2;stroke-linecap:round;stroke-linejoin:round;stroke-miterlimit:10;stroke-dasharray:none;stroke-opacity:1" d="m404.6 186.37 31.77.1M404.6 164.48l31.77.1M404.6 178.82l31.77.1M404.6 156.93l31.77.1M404.6 171.27l31.77.1M404.6 149.38l31.77.1M406.23 126.25a14.39 14.39 0 1 1 28.78 0 14.39 14.39 0 0 1-28.78 0z" transform="matrix(1 0 0 -1 0 244.08)"/><path style="fill:#000;fill-opacity:1;fill-rule:nonzero;stroke:none" d="M410.31 120.3h-1.43v2.16h3.98v-9.8h-2.55zM417.97 117.58c0-.44.04-.83.12-1.19.08-.35.19-.66.33-.92s.31-.46.51-.6c.2-.15.43-.22.68-.22.24 0 .47.07.67.22.2.14.37.34.51.6.14.26.25.57.33.92a5.53 5.53 0 0 1-.33 3.29 1.7 1.7 0 0 1-.51.6c-.2.14-.43.2-.67.2-.25 0-.48-.06-.68-.2a1.8 1.8 0 0 1-.51-.6 3.34 3.34 0 0 1-.33-.93 5.55 5.55 0 0 1-.12-1.17zm-2.52 0c0 .78.1 1.48.3 2.12.2.64.5 1.18.86 1.63a3.8 3.8 0 0 0 3 1.42 3.8 3.8 0 0 0 2.99-1.42c.36-.45.65-1 .85-1.63.2-.64.3-1.34.3-2.12s-.1-1.5-.3-2.13a5.06 5.06 0 0 0-.85-1.64 3.76 3.76 0 0 0-3-1.42 3.8 3.8 0 0 0-2.99 1.42c-.37.46-.65 1-.86 1.64-.2.64-.3 1.35-.3 2.13zM426.81 117.58c0-.44.04-.83.12-1.19.08-.35.19-.66.33-.92s.31-.46.51-.6c.2-.15.43-.22.68-.22.24 0 .47.07.67.22.2.14.37.34.51.6.14.26.25.57.33.92a5.53 5.53 0 0 1-.33 3.29 1.7 1.7 0 0 1-.51.6c-.2.14-.43.2-.67.2-.25 0-.48-.06-.68-.2a1.8 1.8 0 0 1-.51-.6 3.34 3.34 0 0 1-.33-.93 5.55 5.55 0 0 1-.12-1.17zm-2.52 0c0 .78.1 1.48.3 2.12.2.64.5 1.18.86 1.63a3.8 3.8 0 0 0 3 1.42 3.8 3.8 0 0 0 2.99-1.42c.36-.45.65-1 .85-1.63.2-.64.3-1.34.3-2.12s-.1-1.5-.3-2.13a5.06 5.06 0 0 0-.85-1.64 3.76 3.76 0 0 0-2.99-1.42 3.8 3.8 0 0 0-3 1.42c-.37.46-.65 1-.85 1.64-.2.64-.31 1.35-.31 2.13z"/><path style="fill:#fff;fill-opacity:1;fill-rule:nonzero;stroke:none" d="M288.35 139.92a4 4 0 0 0 4 4h88.83a4 4 0 0 0 4-4V59.08a4 4 0 0 0-4-4h-88.83a4 4 0 0 0-4 4v80.84z"/><path style="fill:none;stroke:#1a0007;stroke-width:2;stroke-linecap:butt;stroke-linejoin:round;stroke-miterlimit:10;stroke-dasharray:none;stroke-opacity:1" d="M288.35 104.16a4 4 0 0 1 4-4h88.83a4 4 0 0 1 4 4V185a4 4 0 0 1-4 4h-88.83a4 4 0 0 1-4-4v-80.84z" transform="matrix(1 0 0 -1 0 244.08)"/><path style="fill:none;stroke:#1a0007;stroke-width:2;stroke-linecap:round;stroke-linejoin:round;stroke-miterlimit:10;stroke-dasharray:none;stroke-opacity:1" d="m295.48 121.88 31.78.1M295.48 129.43l31.78.1M295.48 136.98l31.78.1M295.48 144.53l56.35.1M295.48 152.08l56.35.1M295.48 159.63l56.35.1" transform="matrix(1 0 0 -1 0 244.08)"/><path style="fill:#190007;fill-opacity:1;fill-rule:nonzero;stroke:none" d="M289.34 142.96h95.24v-8.03h-95.24v8.03z"/><path style="fill:#fff;fill-opacity:1;fill-rule:nonzero;stroke:none" d="M336.04 120.46c0 1.1.9 2 2 2h11.73a2 2 0 0 0 2-2v-12.74a2 2 0 0 0-2-2h-11.73a2 2 0 0 0-2 2v12.74z"/><path style="fill:none;stroke:#1a0007;stroke-width:2;stroke-linecap:round;stroke-linejoin:round;stroke-miterlimit:10;stroke-dasharray:none;stroke-opacity:1" d="M336.04 123.61c0-1.1.9-2 2-2h11.73a2 2 0 0 1 2 2v12.74a2 2 0 0 1-2 2h-11.73a2 2 0 0 1-2-2v-12.74z" transform="matrix(1 0 0 -1 0 244.08)"/><path style="fill:#ff4d2b;fill-opacity:1;fill-rule:nonzero;stroke:none" d="M291.61 138.88a2.25 2.25 0 1 0 4.5 0 2.25 2.25 0 0 0-4.5 0z"/><path style="fill:#ff8900;fill-opacity:1;fill-rule:nonzero;stroke:none" d="M297.65 138.88a2.25 2.25 0 1 0 4.5 0 2.25 2.25 0 0 0-4.5 0z"/><path style="fill:none;stroke:#1a0007;stroke-width:2;stroke-linecap:round;stroke-linejoin:round;stroke-miterlimit:10;stroke-dasharray:none;stroke-opacity:1" d="m288.35 109.98 96.83-.1" transform="matrix(1 0 0 -1 0 244.08)"/><path style="fill:#66f400;fill-opacity:1;fill-rule:nonzero;stroke:none" d="M303.7 138.88a2.25 2.25 0 1 0 4.49 0 2.25 2.25 0 0 0-4.5 0z"/><path style="fill:none;stroke:#1a0007;stroke-width:2;stroke-linecap:round;stroke-linejoin:round;stroke-miterlimit:10;stroke-dasharray:none;stroke-opacity:1" d="m295.48 167.18 56.35.1M295.48 175.11l56.35.1" transform="matrix(1 0 0 -1 0 244.08)"/><path style="fill:none;stroke:#000;stroke-width:2;stroke-linecap:round;stroke-linejoin:round;stroke-miterlimit:10;stroke-dasharray:none;stroke-opacity:1" d="M359.92 108.74v79.85" transform="matrix(1 0 0 -1 0 244.08)"/><path style="fill:none;stroke:#1a0007;stroke-width:2;stroke-linecap:round;stroke-linejoin:round;stroke-miterlimit:10;stroke-dasharray:none;stroke-opacity:1" d="M384.62 181.98h-24.48M385.18 168.21h-24.8" transform="matrix(1 0 0 -1 0 244.08)"/><path style="fill:none;stroke:#000;stroke-width:2;stroke-linecap:round;stroke-linejoin:round;stroke-miterlimit:10;stroke-dasharray:none;stroke-opacity:1" d="M364.28 114.16h5.2M368.17 116.93h5.2M368.17 119.7h5.2M368.17 122.48h5.2M364.28 125.26h5.2M364.21 128.03h11.87M368.17 130.8h11.87M368.17 133.58h11.87M368.17 136.36h11.87M368.17 139.13h11.87M364.28 141.9h11.87M364.21 144.68h2.67M367.61 147.46h2.67M370.28 150.23h2.67M367.61 153h2.67M364.21 158.55h6.07M367.61 161.33h6.07M364.21 164.1h6.07M364.21 155.78h2.67" transform="matrix(1 0 0 -1 0 244.08)"/><path style="fill:none;stroke:#000;stroke-width:1;stroke-linecap:round;stroke-linejoin:round;stroke-miterlimit:10;stroke-dasharray:none;stroke-opacity:1" d="m362.3 183.82 1.67 1.58-1.76 1.8" transform="matrix(1 0 0 -1 0 244.08)"/><path style="fill:#4ddd4d;fill-opacity:1;fill-rule:nonzero;stroke:none" d="M39.63 143.04a7.74 7.74 0 1 0 15.48 0V64.88a7.74 7.74 0 0 0-15.48 0v78.16z"/><path style="fill:none;stroke:#000;stroke-width:2;stroke-linecap:butt;stroke-linejoin:round;stroke-miterlimit:10;stroke-dasharray:none;stroke-opacity:1" d="M39.63 101.04a7.74 7.74 0 0 1 15.48 0v78.15a7.74 7.74 0 1 1-15.48 0v-78.15z" transform="matrix(1 0 0 -1 0 244.08)"/><path style="fill:#4ddd4d;fill-opacity:1;fill-rule:nonzero;stroke:none" d="M70.59 143.04a7.74 7.74 0 1 0 15.48 0V64.88a7.74 7.74 0 0 0-15.48 0v78.16z"/><path style="fill:none;stroke:#000;stroke-width:2;stroke-linecap:butt;stroke-linejoin:round;stroke-miterlimit:10;stroke-dasharray:none;stroke-opacity:1" d="M70.59 101.04a7.74 7.74 0 0 1 15.48 0v78.15a7.74 7.74 0 1 1-15.48 0v-78.15z" transform="matrix(1 0 0 -1 0 244.08)"/><path style="fill:#4ddd4d;fill-opacity:1;fill-rule:nonzero;stroke:none" d="M55.1 150.74a7.74 7.74 0 1 0 15.48 0V72.58a7.74 7.74 0 0 0-15.48 0v78.16z"/><path style="fill:none;stroke:#000;stroke-width:2;stroke-linecap:butt;stroke-linejoin:round;stroke-miterlimit:10;stroke-dasharray:none;stroke-opacity:1" d="M55.1 93.34a7.74 7.74 0 0 1 15.48 0v78.15a7.74 7.74 0 1 1-15.48 0V93.34z" transform="matrix(1 0 0 -1 0 244.08)"/><path style="fill:#000;fill-opacity:1;fill-rule:nonzero;stroke:none" d="M48.06 154.2c0 .52-.42.95-.94.95a.95.95 0 0 1-.95-.95v-6.07a.95.95 0 1 1 1.9 0v6.07zM79.27 154.2c0 .52-.42.95-.94.95a.95.95 0 0 1-.95-.95v-6.07a.95.95 0 1 1 1.9 0v6.07zM63.78 162.08c0 .52-.42.94-.95.94a.95.95 0 0 1-.94-.94V156c0-.53.42-.95.94-.95.53 0 .95.42.95.95v6.07zM76.51 101.71a.99.99 0 0 1 0-1.98h3.63c.55 0 .99.45.99 1 0 .54-.44.98-.99.98h-3.63zM45.3 101.71a.99.99 0 0 1 0-1.98h3.63c.55 0 .99.45.99 1 0 .54-.44.98-.99.98H45.3zM61.03 84.4a.99.99 0 1 1 0-1.98h3.63c.55 0 .99.45.99 1 0 .54-.44.98-.99.98h-3.63zM61.03 110.16a.99.99 0 1 1 0-1.98h3.63a.99.99 0 1 1 0 1.98h-3.63zM61.03 140.71a.99.99 0 1 1 0-1.98h3.63c.55 0 .99.45.99 1 0 .54-.44.98-.99.98h-3.63zM76.51 132.7a.99.99 0 0 1 0-1.98h3.63c.55 0 .99.45.99 1 0 .54-.44.98-.99.98h-3.63zM45.57 132.27a.99.99 0 1 1 0-1.98h3.63c.55 0 1 .45 1 1 0 .54-.45.98-1 .98h-3.63zM76.51 108.18a.99.99 0 0 1 0-1.98h3.63c.55 0 .99.45.99 1 0 .54-.44.98-.99.98h-3.63zM45.3 108.18a.99.99 0 0 1 0-1.98h3.63c.55 0 .99.45.99 1 0 .54-.44.98-.99.98H45.3zM61.03 90.87a.99.99 0 1 1 0-1.98h3.63c.55 0 .99.45.99 1 0 .54-.44.98-.99.98h-3.63zM61.03 116.63a.99.99 0 1 1 0-1.98h3.63a.99.99 0 1 1 0 1.98h-3.63zM61.03 147.18a.99.99 0 1 1 0-1.98h3.63c.55 0 .99.45.99 1 0 .54-.44.98-.99.98h-3.63zM76.51 139.17a.99.99 0 1 1 0-1.98h3.63c.55 0 .99.45.99 1 0 .54-.44.98-.99.98h-3.63zM87.05 88.62a.99.99 0 0 1 0-1.98h3.63c.55 0 1 .45 1 1 0 .54-.45.98-1 .98h-3.63zM87.05 134.95a.99.99 0 1 1 0-1.98h3.63c.55 0 1 .45 1 1 0 .54-.45.98-1 .98h-3.63zM35.9 114.97a.99.99 0 0 1 0-1.98h3.63c.55 0 .99.45.99 1 0 .54-.44.98-.99.98H35.9zM87.05 94.82a.99.99 0 1 1 0-1.98h3.63c.55 0 1 .45 1 1 0 .54-.45.98-1 .98h-3.63zM87.05 143.81a.99.99 0 0 1 0-1.98h3.63c.55 0 1 .45 1 1 0 .54-.45.98-1 .98h-3.63zM35.9 123.83a.99.99 0 1 1 0-1.98h3.63c.55 0 .99.45.99 1 0 .54-.44.98-.99.98H35.9z"/><path style="fill:orange;fill-opacity:1;fill-rule:nonzero;stroke:none" d="M26.03 77.36c-.01.05.03.1.08.1h71.45c.05 0 .09-.05.08-.1L84.46 15.2c0-.02-.03-.42-.06-.42H39.27c-.03 0-.06.4-.06.42L26.03 77.36z"/><path style="fill:none;stroke:#000;stroke-width:2;stroke-linecap:butt;stroke-linejoin:round;stroke-miterlimit:10;stroke-dasharray:none;stroke-opacity:1" d="M26.03 166.72a.08.08 0 0 1 .08-.1h71.45c.05 0 .09.04.08.1l-13.18 62.16c0 .02-.03.42-.06.42H39.27c-.03 0-.06-.4-.06-.42l-13.18-62.16z" transform="matrix(1 0 0 -1 0 244.08)"/><path style="fill:#000;fill-opacity:1;fill-rule:nonzero;stroke:none" d="M45.57 138.74a.99.99 0 1 1 0-1.98h3.63c.55 0 1 .45 1 1 0 .54-.45.98-1 .98h-3.63z"/><path style="fill:#fff;fill-opacity:1;fill-rule:nonzero;stroke:none" d="M102 198.86a6 6 0 0 0 6 6h51.8a6 6 0 0 0 6-6v-50.99a6 6 0 0 0-6-6h-17.68l1.74-17.26-17.11 17.26h-18.76a6 6 0 0 0-6 6v50.99z"/><path style="fill:none;stroke:#1a0007;stroke-width:2;stroke-linecap:butt;stroke-linejoin:round;stroke-miterlimit:10;stroke-dasharray:none;stroke-opacity:1" d="M102 45.22a6 6 0 0 1 6-6h51.8a6 6 0 0 1 6 6V96.2a6 6 0 0 1-6 6h-17.68l1.74 17.26-17.11-17.26h-18.76a6 6 0 0 1-6-6v-51z" transform="matrix(1 0 0 -1 0 244.08)"/><path style="fill:#f0edd3;fill-opacity:1;fill-rule:nonzero;stroke:none" d="M110.58 195.47h46.64v-41.1c-20.32-9.12-23.87 11.6-46.64 0v41.1z"/><path style="fill:none;stroke:#1a0007;stroke-width:2;stroke-linecap:butt;stroke-linejoin:round;stroke-miterlimit:10;stroke-dasharray:none;stroke-opacity:1" d="M110.58 48.61h46.64v41.1c-20.32 9.12-23.87-11.6-46.64 0V48.6z" transform="matrix(1 0 0 -1 0 244.08)"/><path style="fill:none;stroke:#1a0007;stroke-width:2;stroke-linecap:round;stroke-linejoin:round;stroke-miterlimit:10;stroke-dasharray:none;stroke-opacity:1" d="M118.64 55.52h30.52M118.64 63.72h30.52M118.64 71.91h30.52M118.64 80.11h30.52" transform="matrix(1 0 0 -1 0 244.08)"/><path style="fill:#fff;fill-opacity:1;fill-rule:nonzero;stroke:none" d="M289.68 174.88c6.81-.08 69.92.06 77.25.15 26.66 5.82 16.58 45.25-9.39 37.36.4 21.34-15.64 30.37-28.84 29.79-14.08-.63-25.37-11.92-25.12-21.34-4.87 3.42-28.64 3.84-33.2-17.64-3.21-15.23 9.46-27 19.3-28.32z"/><path style="fill:none;stroke:#000;stroke-width:2;stroke-linecap:butt;stroke-linejoin:round;stroke-miterlimit:10;stroke-dasharray:none;stroke-opacity:1" d="M289.68 69.2c6.81.07 69.92-.07 77.25-.15 26.66-5.83 16.58-45.25-9.39-37.37.4-21.33-15.64-30.37-28.84-29.78-14.08.63-25.37 11.92-25.12 21.33-4.87-3.41-28.64-3.84-33.2 17.65-3.21 15.23 9.46 27 19.3 28.32z" transform="matrix(1 0 0 -1 0 244.08)"/><path style="fill:red;fill-opacity:1;fill-rule:nonzero;stroke:none" d="M302.8 209.16a4.06 4.06 0 0 0 4.05 4.06h40.9a4.06 4.06 0 0 0 4.06-4.06v-21.37a4.06 4.06 0 0 0-4.06-4.06h-40.9a4.06 4.06 0 0 0-4.06 4.06v21.37z"/><path style="fill:none;stroke:#fc2900;stroke-width:2.02884603;stroke-linecap:butt;stroke-linejoin:round;stroke-miterlimit:10;stroke-dasharray:none;stroke-opacity:1" d="M302.8 34.92a4.06 4.06 0 0 1 4.05-4.06h40.9a4.06 4.06 0 0 1 4.06 4.06v21.37a4.06 4.06 0 0 1-4.06 4.06h-40.9a4.06 4.06 0 0 1-4.06-4.06V34.92z" transform="matrix(1 0 0 -1 0 244.08)"/><path style="fill:#fff;fill-opacity:1;fill-rule:nonzero;stroke:none" d="M322.96 207.84a1.52 1.52 0 0 1-2.26-1.33v-15.96c0-1.18 1.3-1.91 2.31-1.3l13.73 8.35c1 .61.97 2.07-.05 2.64l-13.73 7.6z"/><path style="fill:none;stroke:#1a0007;stroke-width:.01014423;stroke-linecap:butt;stroke-linejoin:round;stroke-miterlimit:10;stroke-dasharray:none;stroke-opacity:1" d="M322.96 36.23a1.52 1.52 0 0 0-2.26 1.33v15.96c0 1.19 1.3 1.92 2.31 1.3l13.73-8.35c1-.6.97-2.06-.05-2.63l-13.73-7.6z" transform="matrix(1 0 0 -1 0 244.08)"/><path style="fill:#fff;fill-opacity:1;fill-rule:nonzero;stroke:none" d="M494.44 228.72a6 6 0 0 1-6 6h-61.58a6 6 0 0 1-6-6V175.8a6 6 0 0 1 6-6h21.3l-2-17.8 19.73 17.8h22.55a6 6 0 0 1 6 6v52.92z"/><path style="fill:none;stroke:#1a0007;stroke-width:2;stroke-linecap:butt;stroke-linejoin:round;stroke-miterlimit:10;stroke-dasharray:none;stroke-opacity:1" d="M494.44 15.36a6 6 0 0 0-6-6h-61.58a6 6 0 0 0-6 6v52.92a6 6 0 0 0 6 6h21.3l-2 17.8 19.73-17.8h22.55a6 6 0 0 0 6-6V15.36z" transform="matrix(1 0 0 -1 0 244.08)"/><path style="fill:none;stroke:#1a0007;stroke-width:2;stroke-linecap:round;stroke-linejoin:round;stroke-miterlimit:10;stroke-dasharray:none;stroke-opacity:1" d="m448.94 62.41 15.72-.05M456.8 56.03v6.33" transform="matrix(1 0 0 -1 0 244.08)"/><path style="fill:#008cff;fill-opacity:1;fill-rule:nonzero;stroke:none" d="M451.3 211.85a5.5 5.5 0 0 0 11 0V197.9a5.5 5.5 0 0 0-11 0v13.95z"/><path style="fill:none;stroke:#1a0007;stroke-width:2;stroke-linecap:butt;stroke-linejoin:round;stroke-miterlimit:10;stroke-dasharray:none;stroke-opacity:1" d="M451.3 32.23a5.5 5.5 0 0 1 11 0v13.94a5.5 5.5 0 1 1-11 0V32.23z" transform="matrix(1 0 0 -1 0 244.08)"/><path style="fill:none;stroke:#1a0007;stroke-width:2;stroke-linecap:round;stroke-linejoin:round;stroke-miterlimit:10;stroke-dasharray:none;stroke-opacity:1" d="M469.39 29.75s1.9 3.45-.1 6.91M444.76 29.75s-1.9 3.45.1 6.91M474.58 26.24s3.83 6.96-.2 13.93M439.57 26.24s-3.82 6.96.2 13.93M447.61 44.54s-1.46 10.98 9.26 10.98c10.73 0 9.67-10.98 9.67-10.98" transform="matrix(1 0 0 -1 0 244.08)"/><path style="fill:#fff;fill-opacity:1;fill-rule:nonzero;stroke:none" d="M196.9 216.13a6 6 0 0 0 6 6h51.17a6 6 0 0 0 6-6v-51.31a6 6 0 0 0-6-6h-17.45l3.72-13.33-18.94 13.32h-18.5a6 6 0 0 0-6 6v51.32z"/><path style="fill:none;stroke:#1a0007;stroke-width:2;stroke-linecap:butt;stroke-linejoin:round;stroke-miterlimit:10;stroke-dasharray:none;stroke-opacity:1" d="M196.9 27.95a6 6 0 0 1 6-6h51.17a6 6 0 0 1 6 6v51.31a6 6 0 0 1-6 6h-17.45l3.72 13.32-18.94-13.32h-18.5a6 6 0 0 1-6-6V27.95z" transform="matrix(1 0 0 -1 0 244.08)"/><path style="fill:#f6de1d;fill-opacity:1;fill-rule:nonzero;stroke:none" d="M201.08 215.84c0 1.1.9 2 2 2h50.8a2 2 0 0 0 2-2v-50.66a2 2 0 0 0-2-2h-50.8a2 2 0 0 0-2 2v50.66z"/><path style="fill:none;stroke:#f6de1d;stroke-width:2;stroke-linecap:butt;stroke-linejoin:round;stroke-miterlimit:10;stroke-dasharray:none;stroke-opacity:1" d="M201.08 28.24c0-1.1.9-2 2-2h50.8a2 2 0 0 1 2 2V78.9a2 2 0 0 1-2 2h-50.8a2 2 0 0 1-2-2V28.24z" transform="matrix(1 0 0 -1 0 244.08)"/><path style="fill:#000;fill-opacity:1;fill-rule:nonzero;stroke:none" d="M238.08 175.08c-1.03-.52-2.02-1.16-3-1.75-.33-.19-1-.4-1.21-.7a9.28 9.28 0 0 1 3.91-4.02c.17-.08.35-.24.54-.3.87-.2 1.69-.6 2.6-.77 3.26-.6 7.58-.07 9.68 2.87a6.73 6.73 0 0 1 1.23 3.62 8.61 8.61 0 0 1-.53 3.65c-.97 2.41-3.67 3.92-5.98 4.85-1.24.5-3.77 1.38-4.45 2.52-.19.3-.27.67-.3 1.02-.14 1.92 1.24 2.44 2.9 2.44 1.37 0 2.1-1.24 2.84-2.17 1.02.5 1.92 1.26 2.9 1.85.3.19.9.43 1.12.72.04.05-.72 1.13-.8 1.24-.67.89-1.9 2.07-3.06 2.36-.7.17-1.36.4-2.1.48-2.95.35-6.02-.4-7.82-2.92a6.65 6.65 0 0 1-1.13-3.52c-.2-4.18 2.5-6.64 6.14-8.1 1.31-.52 2.69-1.06 3.86-1.84.4-.26.93-.66 1.05-1.16.1-.43.22-.88.16-1.34-.28-2.14-3.33-2.35-4.88-2.01-1.66.37-2.69 1.66-3.67 2.98zM225.96 192.77c-.02-.01-.06-.02-.06-.05v-17.54c0-2.2-.78-3.19-3.03-3.19-.32 0-.85.12-1.12.32-.47.35-.91.72-1.24 1.21-.19.29-.4.9-.67 1.1h-.05c-.3-.07-.7-.42-.97-.59-1.07-.64-2.17-1.26-3.21-1.96.2-.6.66-1.2 1.04-1.69 1.83-2.34 4.4-3.05 7.3-3.05 2.12 0 4.32.93 5.65 2.6 1.11 1.39 1.5 3.39 1.5 5.12v17.62c0 .03.02.1-.05.1-1.68.02-3.36 0-5.1 0z"/><path style="fill:#fff;fill-opacity:1;fill-rule:nonzero;stroke:none" d="M559.77 69.16a6 6 0 0 1-6 6h-63.3a6 6 0 0 1-6-6V41.22a6 6 0 0 1 6-6h21.95l-2.06-10.95 20.2 10.95h23.21a6 6 0 0 1 6 6v27.94z"/><path style="fill:none;stroke:#1a0007;stroke-width:2;stroke-linecap:butt;stroke-linejoin:round;stroke-miterlimit:10;stroke-dasharray:none;stroke-opacity:1" d="M559.77 174.92a6 6 0 0 0-6-6h-63.3a6 6 0 0 0-6 6v27.94a6 6 0 0 0 6 6h21.95l-2.06 10.95 20.2-10.95h23.21a6 6 0 0 0 6-6v-27.94z" transform="matrix(1 0 0 -1 0 244.08)"/><path style="fill:none;stroke:#1a0007;stroke-width:3.01706791;stroke-linecap:butt;stroke-linejoin:round;stroke-miterlimit:10;stroke-dasharray:none;stroke-opacity:1" d="M512.9 182.59s-4.42-2.2-7.62.32c-1.62 1.28-1.98 2.63-2.29 4.8-.25 1.75.14 5.3.93 6.38a5.3 5.3 0 0 0 3.85 1.97c2.71.27 5.52-.97 5.52-.97M527.46 182.96s-2.22-1.13-4.35-1.14c-2.12-.01-3.2.25-4.1 1.6-.89 1.36-.5 2.69.24 3.55.85 1 1.5 1.33 3.43 2.07 1.32.5 3 1.16 3.44 2.48.45 1.36-.06 2.49-.85 3.34-.38.4-1.35 1-2.23 1.18-.59.13-1.73.3-3.47.06-1.73-.24-3.46-1.02-3.46-1.02M542 182.86s-2.22-1.13-4.34-1.14c-2.12 0-3.2.26-4.1 1.61-.89 1.35-.5 2.68.23 3.54.86 1 1.5 1.33 3.44 2.07 1.32.5 3 1.16 3.44 2.48.45 1.37-.06 2.49-.85 3.34-.38.41-1.35 1-2.23 1.19-.59.12-1.74.3-3.47.06-1.73-.24-3.46-1.03-3.46-1.03" transform="matrix(1 0 0 -1 0 244.08)"/><path style="fill:none;stroke:#1d498e;stroke-width:4.52560186;stroke-linecap:butt;stroke-linejoin:round;stroke-miterlimit:10;stroke-dasharray:none;stroke-opacity:1" d="M500.73 174.77s-3.55 0-4.6.51c-1.36.66-2.33.37-1.69 3.85 1.12 6.07-.58 6.84-.96 7.15-.4.33-1.81 1.25-2.13 1.33-.33.07-1.15.4-2 .8l-1.7-.01M543 174.75s3.55 0 4.6.51c1.37.67 2.34.37 1.7 3.85-1.13 6.07.58 6.84.96 7.15.4.33 1.8 1.25 2.12 1.33.34.08 1.16.4 2 .8l1.7-.01" transform="matrix(1 0 0 -1 0 244.08)"/><path style="fill:none;stroke:#1d498e;stroke-width:4.52560186;stroke-linecap:butt;stroke-linejoin:round;stroke-miterlimit:10;stroke-dasharray:none;stroke-opacity:1" d="M500.63 201.93s-1.44-.04-3.17-.19a3.9 3.9 0 0 1-2.14-1.02c-.8-.82-.73-2.19-.71-3.07.04-2.68.18-6-1.13-7.13-1.4-1.2-.98-.8-2.13-1.32s-1.15-.4-2-.8l-1.7.01M543.1 201.91s1.45-.03 3.17-.18a3.9 3.9 0 0 0 2.15-1.03c.8-.82.72-2.19.7-3.07-.04-2.68-.18-6 1.14-7.12 1.4-1.2.97-.8 2.12-1.33 1.15-.52 1.16-.4 2-.8l1.7.01" transform="matrix(1 0 0 -1 0 244.08)"/><path style="fill:#fff;fill-opacity:1;fill-rule:nonzero;stroke:none" d="M177.53 122.17a6 6 0 0 0 6 6h75.6a6 6 0 0 0 6-6V99.28a6 6 0 0 0-6-6h-26.51l3.13-14.98-24.24 14.98h-27.98a6 6 0 0 0-6 6v22.89z"/><path style="fill:none;stroke:#1a0007;stroke-width:2;stroke-linecap:butt;stroke-linejoin:round;stroke-miterlimit:10;stroke-dasharray:none;stroke-opacity:1" d="M177.53 121.9a6 6 0 0 1 6-6h75.6a6 6 0 0 1 6 6v22.9a6 6 0 0 1-6 6h-26.51l3.13 14.98-24.24-14.99h-27.98a6 6 0 0 1-6-6v-22.88z" transform="matrix(1 0 0 -1 0 244.08)"/><path style="fill:#fe694b;fill-opacity:1;fill-rule:nonzero;stroke:none" d="M182.54 121.7c0 1.1.9 2 2 2h73.61a2 2 0 0 0 2-2v-21.68a2 2 0 0 0-2-2h-73.6a2 2 0 0 0-2 2v21.68z"/><path style="fill:none;stroke:#fe694b;stroke-width:2;stroke-linecap:butt;stroke-linejoin:round;stroke-miterlimit:10;stroke-dasharray:none;stroke-opacity:1" d="M182.54 122.38c0-1.1.9-2 2-2h73.61a2 2 0 0 1 2 2v21.68a2 2 0 0 1-2 2h-73.6a2 2 0 0 1-2-2v-21.68z" transform="matrix(1 0 0 -1 0 244.08)"/><path style="fill:none;stroke:#fff;stroke-width:2;stroke-linecap:round;stroke-linejoin:round;stroke-miterlimit:10;stroke-dasharray:none;stroke-opacity:1" d="M218.92 139.15v-9.26M204.97 130v9.25M196.8 129.84v9.24M203.97 135.6h-6.46M212.02 130v9.08M215.3 129.84h-7M227.33 139.25l-.03-9.25M223.4 135.6l3.9-5.6M218.94 129.87l3.7 5.73M223.14 135.63l-.23.01M231.89 129.77l-.02 9.6M237.64 139.41l-5.72-.02M249.58 127.41l5.5 5.58a2 2 0 0 1 .01 2.8l-5.56 5.68M192.9 127.25l-5.5 5.57a2 2 0 0 0-.01 2.8l5.56 5.69M239.77 143.35l7.07-18.7" transform="matrix(1 0 0 -1 0 244.08)"/><path style="fill:#fff;fill-opacity:1;fill-rule:nonzero;stroke:none" d="M578.97 177.6a6 6 0 0 1-6 6h-63.08a6 6 0 0 1-6-6v-56.87a6 6 0 0 1 6-6h21.87l-2.06-18.88 20.14 18.88h23.13a6 6 0 0 1 6 6v56.88z"/><path style="fill:none;stroke:#1a0007;stroke-width:2;stroke-linecap:butt;stroke-linejoin:round;stroke-miterlimit:10;stroke-dasharray:none;stroke-opacity:1" d="M578.97 66.47a6 6 0 0 0-6-6h-63.08a6 6 0 0 0-6 6v56.87a6 6 0 0 0 6 6h21.87l-2.06 18.88 20.14-18.87h23.13a6 6 0 0 0 6-6V66.47z" transform="matrix(1 0 0 -1 0 244.08)"/><path style="fill:#fc2900;fill-opacity:1;fill-rule:nonzero;stroke:none" d="m517.89 164.05 23.4 8.56 23.39-8.22-3.38-31.05-20.02-11.67-20.01 11.53-3.38 30.85z"/><path style="fill:none;stroke:#fc2900;stroke-width:2;stroke-linecap:butt;stroke-linejoin:miter;stroke-miterlimit:10;stroke-dasharray:none;stroke-opacity:1" d="m517.89 80.03 23.4-8.56 23.39 8.21-3.38 31.06-20.02 11.66-20.01-11.52-3.38-30.85z" transform="matrix(1 0 0 -1 0 244.08)"/><path style="fill:none;stroke:#fc2900;stroke-width:2;stroke-linecap:butt;stroke-linejoin:miter;stroke-miterlimit:10;stroke-dasharray:none;stroke-opacity:1" d="m514.16 76.96 27.17-9.64 27.37 9.76-4.23 36.12-23.13 13.4-23.24-13.48-3.94-36.16z" transform="matrix(1 0 0 -1 0 244.08)"/><path style="fill:#fff;fill-opacity:1;fill-rule:nonzero;stroke:none" d="m530.8 133.76 3.97 8.46 13.32.08 3.64-8.59 6.93-.04-17.37 37.58-17.1-37.62 6.6.13z"/><path style="fill:none;stroke:#fff;stroke-width:.2;stroke-linecap:butt;stroke-linejoin:miter;stroke-miterlimit:10;stroke-dasharray:none;stroke-opacity:1" d="m530.8 110.32 3.97-8.46 13.32-.08 3.64 8.58 6.93.04-17.37-37.57-17.1 37.61 6.6-.12z" transform="matrix(1 0 0 -1 0 244.08)"/><path style="fill:#fc2900;fill-opacity:1;fill-rule:nonzero;stroke:none" d="m541.33 158.19-4.52-10.97 8.85.07-4.33 10.9z"/><path style="fill:none;stroke:#fc2900;stroke-width:.2;stroke-linecap:butt;stroke-linejoin:miter;stroke-miterlimit:10;stroke-dasharray:none;stroke-opacity:1" d="m541.33 85.89-4.52 10.96 8.85-.06-4.33-10.9z" transform="matrix(1 0 0 -1 0 244.08)"/><path style="fill:#fff;fill-opacity:1;fill-rule:nonzero;stroke:none" d="M132.74 20.06c6.82-.07 69.93.07 77.26.15 26.66 5.83 16.58 45.25-9.4 37.37.41 21.33-15.64 30.37-28.83 29.78-14.08-.63-25.37-11.92-25.12-21.33-4.87 3.41-28.65 3.84-33.2-17.65-3.22-15.23 9.46-27 19.3-28.32z"/><path style="fill:none;stroke:#000;stroke-width:2;stroke-linecap:butt;stroke-linejoin:round;stroke-miterlimit:10;stroke-dasharray:none;stroke-opacity:1" d="M132.74 224.01c6.82.08 69.93-.06 77.26-.14 26.66-5.83 16.58-45.25-9.4-37.37.41-21.34-15.64-30.37-28.83-29.78-14.08.62-25.37 11.91-25.12 21.33-4.87-3.42-28.65-3.84-33.2 17.65-3.22 15.22 9.46 26.99 19.3 28.31z" transform="matrix(1 0 0 -1 0 244.08)"/><path style="fill:#f05033;fill-opacity:1;fill-rule:nonzero;stroke:none" d="M165.35 74.4a6.74 6.74 0 0 0 9.54 0l18.5-18.51a6.74 6.74 0 0 0 0-9.54L174.94 27.9a6.74 6.74 0 0 0-9.54 0l-18.5 18.5a6.74 6.74 0 0 0 0 9.54l18.45 18.45z"/><path style="fill:#fff;fill-opacity:1;fill-rule:nonzero;stroke:none" d="M177.34 50.84a3.94 3.94 0 1 0 7.88 0 3.94 3.94 0 0 0-7.88 0zM166.33 39.9a3.94 3.94 0 1 0 7.87 0 3.94 3.94 0 0 0-7.87 0zM166.35 61.88a3.94 3.94 0 1 0 7.88 0 3.94 3.94 0 0 0-7.88 0z"/><path style="fill:none;stroke:#fff;stroke-width:3.5;stroke-linecap:butt;stroke-linejoin:round;stroke-miterlimit:10;stroke-dasharray:none;stroke-opacity:1" d="m161.58 173.38 19.26 19.25M170.43 204.4V181.2" transform="matrix(1 0 0 -1 0 244.08)"/></g></g></svg>