<svg xmlns="http://www.w3.org/2000/svg" xml:space="preserve" viewBox="0 0 480 326.66666"><defs><clipPath id="a" clipPathUnits="userSpaceOnUse"><path d="M0 0h358.1v235.8H0Z"/></clipPath><clipPath id="b" clipPathUnits="userSpaceOnUse"><path d="M0 0h360v245H0Z"/></clipPath></defs><g clip-path="url(#a)" transform="matrix(1.33333 0 0 -1.33333 0 326.7)"><g clip-path="url(#b)"><path fill="#1991e8" d="M35.6 57.1c4.8 31.7-44.2 64.6-8 84 37 19.6 50-38.3 67.9-22.7 17.5 33.3 28.4 109.4 80.2 87.3 15.9-6.8 38-32.3 44.4-59.5 2-8.4 14-41.3 19-43.5 23.4-10 70.2 42.1 93.6-7.8 7.9-16.8-3.4-85.6-74.3-85.3-39.6.1-89.8-1.1-155.5 10.2 0 0-16.8-2.8-62.9-13.4-46-10.6-9.3 19-4.4 50.7Z"/><path fill="#1a0007" d="M77.2 30.1h222.4c5.3 0 0-13.9-14.8-13.9H92c-14.6 0-18.2 13.9-14.8 13.9z"/><path fill="none" stroke="#1a0007" stroke-linejoin="round" stroke-miterlimit="10" stroke-width=".0106314" d="M77.2 30.1h222.4c5.3 0 0-13.9-14.8-13.9H92c-14.6 0-18.2 13.9-14.8 13.9z"/><path fill="#ffd72a" d="M94 149.8a8 8 0 0 0 8 8h173.5a8 8 0 0 0 8-8V43.2a8 8 0 0 0-8-8H102a8 8 0 0 0-8 8v106.6z"/><path fill="none" stroke="#1a0007" stroke-linejoin="round" stroke-miterlimit="10" stroke-width="4" d="M94 149.8a8 8 0 0 0 8 8h173.5a8 8 0 0 0 8-8V43.2a8 8 0 0 0-8-8H102a8 8 0 0 0-8 8v106.6z"/><path fill="none" stroke="#1991e8" stroke-linecap="round" stroke-linejoin="round" stroke-miterlimit="10" stroke-width="4" d="m170.1 30.3 30 .1"/><path fill="#fff" d="M217 145.2a4 4 0 0 0 4 4h40.4a4 4 0 0 0 4-4V52.7a4 4 0 0 0-4-4h-40.5a4 4 0 0 0-4 4v92.5z"/><path fill="none" stroke="#1a0007" stroke-linejoin="round" stroke-miterlimit="10" stroke-width="2" d="M217 145.2a4 4 0 0 0 4 4h40.4a4 4 0 0 0 4-4V52.7a4 4 0 0 0-4-4h-40.5a4 4 0 0 0-4 4v92.5z"/><path d="M217.8 148.2h46.6v-9.9h-46.6v9.9z"/><path fill="#ff4d2b" d="M220.2 143.5a2.2 2.2 0 1 0 4.5 0 2.2 2.2 0 0 0-4.5 0z"/><path fill="#ff8900" d="M226.2 143.5a2.2 2.2 0 1 0 4.5 0 2.2 2.2 0 0 0-4.5 0z"/><path fill="none" stroke="#1a0007" stroke-linecap="round" stroke-linejoin="round" stroke-miterlimit="10" stroke-width="2" d="M217 138.5h48.4"/><path fill="#66f400" d="M232.3 143.5a2.2 2.2 0 1 0 4.5 0 2.2 2.2 0 0 0-4.5 0z"/><path fill="none" stroke="#1a0007" stroke-linecap="round" stroke-linejoin="round" stroke-miterlimit="10" stroke-width="2" d="M225.1 58.8H257m-31.9 21.9H257m-31.9-14.3 31.8-.1m-31.8 22 31.8-.1M225.1 74l31.8-.2m-31.8 22H257M226.7 119a14.4 14.4 0 1 0 28.8 0 14.4 14.4 0 0 0-28.8 0z"/><path d="M230.8 121.4h-1.4v2.2h4v-9.8h-2.6zm7.7-2.7.1-1.2c0-.4.2-.7.3-1l.6-.5c.1-.2.4-.2.6-.2.3 0 .5 0 .7.2.2.1.4.3.5.6.1.2.3.5.3.9a5.5 5.5 0 0 1-.3 3.3l-.5.6-.7.2c-.2 0-.5 0-.6-.2l-.6-.6-.3-1-.1-1.1zm-2.5 0c0 .8 0 1.5.3 2.1l.8 1.6c.4.5.8.8 1.3 1 .5.3 1.1.5 1.7.5a3.8 3.8 0 0 0 3-1.5c.4-.4.7-1 .9-1.6a7 7 0 0 0 .3-2.1 7 7 0 0 0-.3-2.1 5 5 0 0 0-.9-1.7 3.8 3.8 0 0 0-3-1.4 3.8 3.8 0 0 0-3 1.4 5 5 0 0 0-.8 1.7 7 7 0 0 0-.3 2zm11.3 0 .1-1.2.4-1 .5-.5c.2-.2.4-.2.7-.2.2 0 .4 0 .6.2.2.1.4.3.5.6.2.2.3.5.4.9a5.5 5.5 0 0 1-.4 3.3c0 .2-.3.4-.5.6l-.6.2c-.3 0-.5 0-.7-.2l-.5-.6-.4-1v-1.1zm-2.5 0c0 .8.1 1.5.3 2.1.2.6.5 1.2.9 1.6.3.5.8.8 1.3 1 .5.3 1 .5 1.7.5a3.8 3.8 0 0 0 3-1.5l.8-1.6a7 7 0 0 0 .3-2.1 7 7 0 0 0-.3-2.1 5 5 0 0 0-.8-1.7 3.8 3.8 0 0 0-3-1.4 3.8 3.8 0 0 0-3 1.4 5 5 0 0 0-.9 1.7 7 7 0 0 0-.3 2z"/><path fill="#fff" d="M108.9 141a4 4 0 0 0 4 4h88.8a4 4 0 0 0 4-4V60.2a4 4 0 0 0-4-4h-88.8a4 4 0 0 0-4 4V141z"/><path fill="none" stroke="#1a0007" stroke-linejoin="round" stroke-miterlimit="10" stroke-width="2" d="M108.9 141a4 4 0 0 0 4 4h88.8a4 4 0 0 0 4-4V60.2a4 4 0 0 0-4-4h-88.8a4 4 0 0 0-4 4V141z"/><path fill="none" stroke="#1a0007" stroke-linecap="round" stroke-linejoin="round" stroke-miterlimit="10" stroke-width="2" d="m116 123.3 31.8-.1m-31.8-7.4 31.8-.1m-31.8-7.5h31.8m-31.8-7.5 56.3-.1M116 93.1h56.3M116 85.6l56.3-.1"/><path fill="#190007" d="M109.9 144H205v-8h-95.2v8z"/><path fill="#fff" d="M156.6 121.6c0 1 .9 2 2 2h11.7a2 2 0 0 0 2-2v-12.8a2 2 0 0 0-2-2h-11.7a2 2 0 0 0-2 2v12.8z"/><path fill="none" stroke="#1a0007" stroke-linecap="round" stroke-linejoin="round" stroke-miterlimit="10" stroke-width="2" d="M156.6 121.6c0 1 .9 2 2 2h11.7a2 2 0 0 0 2-2v-12.8a2 2 0 0 0-2-2h-11.7a2 2 0 0 0-2 2v12.8z"/><path fill="#ff4d2b" d="M112.1 140a2.2 2.2 0 1 0 4.5 0 2.2 2.2 0 0 0-4.5 0z"/><path fill="#ff8900" d="M118.2 140a2.2 2.2 0 1 0 4.5 0 2.2 2.2 0 0 0-4.5 0z"/><path fill="none" stroke="#1a0007" stroke-linecap="round" stroke-linejoin="round" stroke-miterlimit="10" stroke-width="2" d="m108.9 135.2 96.8.1"/><path fill="#66f400" d="M124.2 140a2.2 2.2 0 1 0 4.5 0 2.2 2.2 0 0 0-4.5 0z"/><path fill="none" stroke="#1a0007" stroke-linecap="round" stroke-linejoin="round" stroke-miterlimit="10" stroke-width="2" d="M116 78h56.3M116 70h56.3"/><path fill="none" stroke="#000" stroke-linecap="round" stroke-linejoin="round" stroke-miterlimit="10" stroke-width="2" d="M180.4 136.4V56.6"/><path fill="none" stroke="#1a0007" stroke-linecap="round" stroke-linejoin="round" stroke-miterlimit="10" stroke-width="2" d="M205.1 63.2h-24.4m25 13.8h-24.8"/><path fill="none" stroke="#000" stroke-linecap="round" stroke-linejoin="round" stroke-miterlimit="10" stroke-width="2" d="M184.8 131h5.2m-1.3-2.7h5.2m-5.2-2.8h5.2m-5.2-2.8h5.2m-9.1-2.7h5.2m-5.3-2.8h11.9m-7.9-2.8h11.9m-11.9-2.8h11.9m-11.9-2.8h11.9m-11.9-2.8h11.9m-15.8-2.7h11.9m-12-2.8h2.7m.7-2.8h2.7m0-2.7h2.7m-5.4-2.8h2.7m-6.1-5.6h6.1m-2.7-2.7h6.1m-9.5-2.9h6.1m-6.1 8.4h2.7"/><path fill="none" stroke="#000" stroke-linecap="round" stroke-linejoin="round" stroke-miterlimit="10" d="m182.8 61.4 1.7-1.6-1.8-1.8"/><path fill="#fff" d="M278.8 227.8a6 6 0 0 1-6 6h-40.5a6 6 0 0 1-6-6v-37.5a6 6 0 0 1 6-6h13.5l-1.4-13.5 14 13.5h14.4a6 6 0 0 1 6 6v37.5z"/><path fill="none" stroke="#1a0007" stroke-linejoin="round" stroke-miterlimit="10" stroke-width="2" d="M278.8 227.8a6 6 0 0 1-6 6h-40.5a6 6 0 0 1-6-6v-37.5a6 6 0 0 1 6-6h13.5l-1.4-13.5 14 13.5h14.4a6 6 0 0 1 6 6v37.5z"/><path fill="none" stroke="#1a0007" stroke-linecap="round" stroke-linejoin="round" stroke-miterlimit="10" stroke-width="2" d="M246.3 193.4h11.3m-5.6 4.8v-4.8"/><path fill="#b2bbf7" d="M248 216.6a4 4 0 0 0 7.9 0v-11.1a4 4 0 0 0-7.9 0v11.1z"/><path fill="none" stroke="#1a0007" stroke-linejoin="round" stroke-miterlimit="10" stroke-width="2" d="M248 216.6a4 4 0 0 0 7.9 0v-11.1a4 4 0 1 0-7.9 0v11.1z"/><path fill="none" stroke="#1a0007" stroke-linecap="round" stroke-linejoin="round" stroke-miterlimit="10" stroke-width="2" d="M261 218.3s1.3-2.7-.1-5.3m-17.5 5.3s-1.4-2.7 0-5.3m21.2 8s2.8-5.4 0-10.7M239.7 221s-2.8-5.4.1-10.7m5.6-3.3s-1-8.4 6.6-8.4c7.7 0 7 8.4 7 8.4"/><path fill="#fff" d="M130 227.8a6 6 0 0 0 6 6h38a6 6 0 0 0 6-6v-37.6a6 6 0 0 0-6-6h-12.6l3-10.4-15 10.4H136a6 6 0 0 0-6 6v37.6z"/><path fill="none" stroke="#1a0007" stroke-linejoin="round" stroke-miterlimit="10" stroke-width="2" d="M130 227.8a6 6 0 0 0 6 6h38a6 6 0 0 0 6-6v-37.6a6 6 0 0 0-6-6h-12.6l3-10.4-15 10.4H136a6 6 0 0 0-6 6v37.6z"/><path fill="#f6de1d" d="M133.3 228.4c0 1.1.9 2 2 2h39.4a2 2 0 0 0 2-2v-38.7a2 2 0 0 0-2-2h-39.4a2 2 0 0 0-2 2v38.7z"/><path fill="none" stroke="#f6de1d" stroke-linejoin="round" stroke-miterlimit="10" stroke-width="2" d="M133.3 228.4c0 1.1.9 2 2 2h39.4a2 2 0 0 0 2-2v-38.7a2 2 0 0 0-2-2h-39.4a2 2 0 0 0-2 2v38.7z"/><path d="m162.6 197-2.4-1.4-1-.5a7.3 7.3 0 0 1 3.1-3.2l.5-.2c.6-.2 1.3-.5 2-.6 2.6-.5 6 0 7.7 2.2.6.8 1 1.8 1 2.8 0 1-.1 2-.5 2.9-.7 1.9-2.9 3-4.7 3.8-1 .4-3 1-3.5 2-.2.2-.2.5-.3.8 0 1.5 1 1.9 2.3 1.9 1.1 0 1.7-1 2.3-1.7l2.3 1.4.9.6-.7 1c-.5.7-1.5 1.6-2.4 1.8l-1.7.4c-2.3.3-4.7-.3-6.1-2.3-.6-.8-.9-1.8-1-2.7 0-3.3 2-5.3 5-6.4 1-.4 2-.8 3-1.4.3-.2.7-.6.8-1 0-.3.2-.6.1-1-.2-1.7-2.6-1.8-3.8-1.6-1.3.3-2.2 1.3-3 2.4zm-9.6 13.8V197c0-1.7-.7-2.4-2.5-2.4-.2 0-.6 0-.9.2a4 4 0 0 0-1 1c0 .2-.3.6-.5.8-.2 0-.6-.3-.8-.5l-2.5-1.5c.1-.5.5-1 .8-1.3 1.4-1.8 3.5-2.4 5.8-2.4a6 6 0 0 1 4.5 2 7.1 7.1 0 0 1 1.1 4v13.9h-4z"/><path fill="#fff" d="M356.1 83.4a6 6 0 0 1-6 6H304a6 6 0 0 1-6-6V64.5a6 6 0 0 1 6-6h15.5l-1.5-8.4 15.6 8.4H350a6 6 0 0 1 6 6v18.9z"/><path fill="none" stroke="#1a0007" stroke-linejoin="round" stroke-miterlimit="10" stroke-width="2" d="M356.1 83.4a6 6 0 0 1-6 6H304a6 6 0 0 1-6-6V64.5a6 6 0 0 1 6-6h15.5l-1.5-8.4 15.6 8.4H350a6 6 0 0 1 6 6v18.9z"/><path fill="none" stroke="#1a0007" stroke-linejoin="round" stroke-miterlimit="10" stroke-width="3.01706791" d="M320 78.8s-3.5 1.7-6-.2c-1.2-1-1.5-2-1.7-3.7-.2-1.4 0-4.1.7-5a4 4 0 0 1 3-1.5c2-.2 4.2.8 4.2.8m11 9.3s-1.8.9-3.4.9c-1.6 0-2.5-.2-3.2-1.2-.6-1-.3-2.1.2-2.8.7-.7 1.2-1 2.7-1.6 1-.4 2.3-.9 2.6-1.9.4-1 0-2-.6-2.6-.3-.3-1-.7-1.7-.9-.5 0-1.4-.2-2.7 0-1.4.2-2.7.8-2.7.8m20 9.4s-1.7.9-3.4.9c-1.6 0-2.4-.2-3.1-1.3-.7-1-.4-2 .2-2.7.6-.8 1.1-1 2.6-1.6 1-.4 2.3-.9 2.7-2 .3-1 0-1.8-.7-2.5-.3-.3-1-.8-1.7-1h-2.7c-1.3.2-2.7.8-2.7.8"/><path fill="none" stroke="#1d498e" stroke-linejoin="round" stroke-miterlimit="10" stroke-width="4.52560186" d="M310.5 84.8s-2.7 0-3.5-.4c-1-.5-1.8-.2-1.3-3 .8-4.6-.5-5.2-.8-5.4-.3-.3-1.4-1-1.6-1l-1.6-.7h-1.3m42.8 10.6s2.7 0 3.5-.4c1-.5 1.8-.3 1.3-3-.8-4.7.5-5.3.8-5.5.3-.3 1.4-1 1.6-1l1.6-.7h1.3"/><path fill="none" stroke="#1d498e" stroke-linejoin="round" stroke-miterlimit="10" stroke-width="4.52560186" d="m310.4 63.9-2.4.1a3 3 0 0 0-1.7.8c-.6.6-.5 1.7-.5 2.4 0 2 .1 4.6-.9 5.5-1 1-.7.6-1.6 1l-1.6.6h-1.3m42.8-10.4 2.5.1a3 3 0 0 1 1.6.8c.7.7.6 1.7.6 2.4 0 2-.1 4.6.9 5.5 1 1 .7.6 1.6 1l1.6.6h1.3"/><path fill="#fff" d="M16.5 203.4a6 6 0 0 0 6 6h66a6 6 0 0 0 6-6v-19a6 6 0 0 0-6-6h-23l2.8-13.4-21.6 13.3H22.5a6 6 0 0 0-6 6v19z"/><path fill="none" stroke="#1a0007" stroke-linejoin="round" stroke-miterlimit="10" stroke-width="2" d="M16.5 203.4a6 6 0 0 0 6 6h66a6 6 0 0 0 6-6v-19a6 6 0 0 0-6-6h-23l2.8-13.4-21.6 13.3H22.5a6 6 0 0 0-6 6v19z"/><path fill="#fe694b" d="M21 203.4c0 1 .8 2 2 2h65a2 2 0 0 0 2-2v-18.9a2 2 0 0 0-2-2H23a2 2 0 0 0-2 2v18.9z"/><path fill="none" stroke="#fe694b" stroke-linejoin="round" stroke-miterlimit="10" stroke-width="2" d="M21 203.4c0 1 .8 2 2 2h65a2 2 0 0 0 2-2v-18.9a2 2 0 0 0-2-2H23a2 2 0 0 0-2 2v18.9z"/><path fill="none" stroke="#fff" stroke-linecap="round" stroke-linejoin="round" stroke-miterlimit="10" stroke-width="2" d="M53.3 188.7v8.2m-12.4-.1v-8.2m-7.3 8.4v-8.3m6.4 3.1h-5.7m12.9 5v-8M50 197h-6m16.8-8.4v8.2m-3.5-5 3.5 5m-7.5.2 3.3-5.2m.4 0h0m7.8 5.2v-8.5m5.2 0h-5.1m15.7 10.6 4.7-4.8c.8-.8.8-2 0-2.8l-4.8-4.9m-50.3 12.7-4.8-4.8a2 2 0 0 1 0-2.8l4.8-5m41.6-1.7 6.3 16.6"/><path fill="#fff" d="M350.4 173.7a6 6 0 0 1-6 6h-38a6 6 0 0 1-6-6v-35.1a6 6 0 0 1 6-6h12.5l-1.3-13 13.4 13h13.4a6 6 0 0 1 6 6v35z"/><path fill="none" stroke="#1a0007" stroke-linejoin="round" stroke-miterlimit="10" stroke-width="2" d="M350.4 173.7a6 6 0 0 1-6 6h-38a6 6 0 0 1-6-6v-35.1a6 6 0 0 1 6-6h12.5l-1.3-13 13.4 13h13.4a6 6 0 0 1 6 6v35z"/><path fill="#fc2900" d="m309.7 166.3 15.6 5.8 15.6-5.6-2.3-21.2-13.3-8-13.4 7.9-2.2 21z"/><path fill="none" stroke="#fc2900" stroke-miterlimit="10" stroke-width="2" d="m309.7 166.3 15.6 5.8 15.6-5.6-2.3-21.2-13.3-8-13.4 7.9-2.2 21z"/><path fill="none" stroke="#fc2900" stroke-miterlimit="10" stroke-width="2" d="m307.2 168.4 18.1 6.6 18.2-6.7-2.8-24.7-15.4-9.2-15.5 9.3-2.6 24.7z"/><path fill="#fff" d="m318.3 145.6 2.6 5.8h9l2.3-5.8h4.6l-11.5 25.6-11.4-25.7h4.4z"/><path fill="none" stroke="#fff" stroke-miterlimit="10" stroke-width=".2" d="m318.3 145.6 2.6 5.8h9l2.3-5.8h4.6l-11.5 25.6-11.4-25.7h4.4z"/><path fill="#fc2900" d="m325.3 162.3-3-7.5h5.9l-2.9 7.5z"/><path fill="none" stroke="#fc2900" stroke-miterlimit="10" stroke-width=".2" d="m325.3 162.3-3-7.5h5.9l-2.9 7.5z"/><path fill="#fff" d="m17.2 78.6 55 .1c19 4.2 11.9 32.3-6.6 26.6A19.5 19.5 0 0 1 45 126.6c-10-.5-18-8.5-17.9-15.2-3.4 2.4-20.4 2.7-23.6-12.6C1.2 88 10.2 79.6 17.2 78.6Z"/><path fill="none" stroke="#000" stroke-linejoin="round" stroke-miterlimit="10" stroke-width="2" d="m17.2 78.6 55 .1c19 4.2 11.9 32.3-6.6 26.6A19.5 19.5 0 0 1 45 126.6c-10-.5-18-8.5-17.9-15.2-3.4 2.4-20.4 2.7-23.6-12.6C1.2 88 10.2 79.6 17.2 78.6z"/><path fill="#f05033" d="M39 116a6.7 6.7 0 0 0 9.6 0L59 105.5a6.7 6.7 0 0 0 0-9.5L48.7 85.6a6.7 6.7 0 0 0-9.6 0L28.7 96a6.7 6.7 0 0 0 0 9.6L39 116z"/><path fill="#fff" d="M49 100.5a2.8 2.8 0 1 0 5.6 0 2.8 2.8 0 0 0-5.6 0zm-7.9-7.7a2.8 2.8 0 1 0 5.7 0 2.8 2.8 0 0 0-5.7 0zm.1 15.6a2.8 2.8 0 1 0 5.6 0 2.8 2.8 0 0 0-5.6 0z"/><path fill="none" stroke="#fff" stroke-linejoin="round" stroke-miterlimit="10" stroke-width="3.5" d="M37.8 114.7 51.5 101M44 92.6v16.5"/></g></g></svg>