<svg xmlns="http://www.w3.org/2000/svg" xml:space="preserve" viewBox="0 0 981.33331 325.33334"><defs><clipPath id="a" clipPathUnits="userSpaceOnUse"><path d="M0 3.32h736V244H0Z"/></clipPath><clipPath id="b" clipPathUnits="userSpaceOnUse"><path d="M0 0h736v244H0Z"/></clipPath></defs><g clip-path="url(#a)" transform="matrix(1.33333 0 0 -1.33333 0 325.33)"><g clip-path="url(#b)"><path fill="#1991e8" d="M4.11 5.52C-8.6 5.52 21.53 135.22 114.06 122c22.94-3.27 73.16-38.25 132.73-38.25 41.61 33.27 28.31 141.05 151.83 119 37.92-6.78 55.4-38.2 70.63-65.39 4.72-8.42 33.32-41.37 45.21-43.5 55.91-9.98 123.93 75.48 179.78 25.61 18.85-16.83-30.14-72.18-12.74-88.74 11.12-10.6 67.79-13.72 48.62-27.41"/><path fill="#13f204" d="m647.84 74 1.34 8.05c36.13-6.75 19.84-50.97-10.16-46.34l4.05 8.96c22.06-.15 25.38 27.33 4.77 29.33z"/><path fill="none" stroke="#000" stroke-linejoin="round" stroke-miterlimit="10" stroke-width="2" d="m647.84 74 1.34 8.05c36.13-6.75 19.84-50.97-10.16-46.34l4.05 8.96c22.06-.15 25.38 27.33 4.77 29.33z"/><path fill="#13f204" d="M597.97 88.05c.9-4.9.5-34.07 14.3-71.33 16.03.07-5.18-.07 25.46 0 10.52 20.7 13.58 71.33 13.58 71.33"/><path fill="none" stroke="#000" stroke-linejoin="round" stroke-miterlimit="10" stroke-width="2" d="M597.97 88.05c.9-4.9.5-34.07 14.3-71.33 16.03.07-5.18-.07 25.46 0 10.52 20.7 13.58 71.33 13.58 71.33"/><path fill="#fff" d="M593.01 100.14a2 2 0 0 0 2 2h59.48a2 2 0 0 0 2-2v-9.73a2 2 0 0 0-2-2H595a2 2 0 0 0-2 2v9.73z"/><path fill="none" stroke="#000" stroke-linejoin="round" stroke-miterlimit="10" stroke-width="2" d="M593.01 100.15c0 1.1.9 2 2 2h59.48a2 2 0 0 0 2-2V90.4a2 2 0 0 0-2-2H595a2 2 0 0 0-2 2v9.74z"/><path fill="#fff" d="M606.47 81.3c0 .13.1.23.22.23s.21-.1.21-.22V64.42c0-.12-.1-.22-.21-.22-.12 0-.22.1-.22.22v16.89z"/><path fill="none" stroke="#fff" stroke-linejoin="round" stroke-miterlimit="10" stroke-width="4" d="M606.47 81.3c0 .13.1.23.22.23s.21-.1.21-.22V64.42c0-.12-.1-.22-.21-.22-.12 0-.22.1-.22.22v16.89z"/><path fill="none" stroke="#000" stroke-linecap="round" stroke-linejoin="round" stroke-miterlimit="10" stroke-width="2" d="M631.29 143.72c-6.32-11.7 8.55-19.55-.47-37.23m-6.63 37.23c-6.32-11.7 8.55-19.55-.47-37.23m-6.63 37.23c-6.32-11.7 8.55-19.55-.47-37.23"/><path fill="#1a0007" d="M256.66 28.92h222.47c5.22 0-.12-13.88-14.84-13.88H271.5c-14.6 0-18.25 13.88-14.84 13.88z"/><path fill="none" stroke="#1a0007" stroke-linejoin="round" stroke-miterlimit="10" stroke-width=".0106314" d="M256.66 28.92h222.47c5.22 0-.12-13.88-14.84-13.88H271.5c-14.6 0-18.25 13.88-14.84 13.88z"/><path fill="#ffd72a" d="M273.53 148.63a8 8 0 0 0 8 8h173.5a8 8 0 0 0 8-8V42.06a8 8 0 0 0-8-8h-173.5a8 8 0 0 0-8 8v106.57z"/><path fill="none" stroke="#1a0007" stroke-linejoin="round" stroke-miterlimit="10" stroke-width="4" d="M273.53 148.63a8 8 0 0 0 8 8h173.5a8 8 0 0 0 8-8V42.06a8 8 0 0 0-8-8h-173.5a8 8 0 0 0-8 8v106.57z"/><path fill="none" stroke="#1991e8" stroke-linecap="round" stroke-linejoin="round" stroke-miterlimit="10" stroke-width="4" d="m349.61 29.12 30 .1"/><path fill="#fff" d="M396.4 143.99a4 4 0 0 0 4 4h40.43a4 4 0 0 0 4-4V51.53a4 4 0 0 0-4-4H400.4a4 4 0 0 0-4 4v92.46z"/><path fill="none" stroke="#1a0007" stroke-linejoin="round" stroke-miterlimit="10" stroke-width="2" d="M396.4 143.99a4 4 0 0 0 4 4h40.43a4 4 0 0 0 4-4V51.53a4 4 0 0 0-4-4H400.4a4 4 0 0 0-4 4v92.46z"/><path d="M397.32 147h46.57v-9.84h-46.57V147z"/><path fill="#ff4d2b" d="M399.66 142.36a2.25 2.25 0 1 0 4.5 0 2.25 2.25 0 0 0-4.5 0z"/><path fill="#ff8900" d="M405.7 142.36a2.25 2.25 0 1 0 4.5 0 2.25 2.25 0 0 0-4.5 0z"/><path fill="none" stroke="#1a0007" stroke-linecap="round" stroke-linejoin="round" stroke-miterlimit="10" stroke-width="2" d="m396.4 137.33 48.43-.1"/><path fill="#66f400" d="M411.74 142.36a2.25 2.25 0 1 0 4.5 0 2.25 2.25 0 0 0-4.5 0z"/><path fill="none" stroke="#1a0007" stroke-linecap="round" stroke-linejoin="round" stroke-miterlimit="10" stroke-width="2" d="m404.6 57.63 31.77-.1M404.6 79.52l31.77-.1M404.6 65.18l31.77-.1M404.6 87.07l31.77-.1M404.6 72.73l31.77-.1M404.6 94.62l31.77-.1m-30.14 23.23a14.39 14.39 0 1 0 28.78 0 14.39 14.39 0 0 0-28.78 0z"/><path d="M410.31 120.23h-1.43v2.16h3.98v-9.8h-2.55zm7.66-2.73c0-.43.04-.83.12-1.18.08-.36.19-.67.33-.93s.31-.46.51-.6c.2-.14.43-.22.68-.22.24 0 .47.08.67.22.2.14.37.34.51.6.14.26.25.57.33.93a5.53 5.53 0 0 1-.33 3.28 1.7 1.7 0 0 1-.51.6c-.2.14-.43.21-.67.21-.25 0-.48-.07-.68-.21a1.8 1.8 0 0 1-.51-.6 3.33 3.33 0 0 1-.33-.92 5.55 5.55 0 0 1-.12-1.18zm-2.52 0a7 7 0 0 0 .3 2.12 5 5 0 0 0 .86 1.64 3.8 3.8 0 0 0 3 1.42 3.8 3.8 0 0 0 2.99-1.42 5 5 0 0 0 .85-1.64c.2-.63.3-1.34.3-2.12s-.1-1.49-.3-2.13a5.06 5.06 0 0 0-.85-1.63 3.76 3.76 0 0 0-3-1.43 3.8 3.8 0 0 0-2.99 1.43c-.37.45-.65 1-.86 1.63-.2.64-.3 1.35-.3 2.13zm11.36 0c0-.43.04-.83.12-1.18.08-.36.19-.67.33-.93s.31-.46.51-.6c.2-.14.43-.22.68-.22.24 0 .47.08.67.22.2.14.37.34.51.6.14.26.25.57.33.93a5.53 5.53 0 0 1-.33 3.28 1.7 1.7 0 0 1-.51.6c-.2.14-.43.21-.67.21-.25 0-.48-.07-.68-.21a1.8 1.8 0 0 1-.51-.6 3.33 3.33 0 0 1-.33-.92 5.55 5.55 0 0 1-.12-1.18zm-2.52 0a7 7 0 0 0 .3 2.12 5 5 0 0 0 .86 1.64 3.8 3.8 0 0 0 3 1.42 3.8 3.8 0 0 0 2.99-1.42 5 5 0 0 0 .85-1.64c.2-.63.3-1.34.3-2.12s-.1-1.49-.3-2.13a5.06 5.06 0 0 0-.85-1.63 3.76 3.76 0 0 0-2.99-1.43 3.8 3.8 0 0 0-3 1.43c-.37.45-.65 1-.85 1.63-.2.64-.31 1.35-.31 2.13z"/><path fill="#fff" d="M288.35 139.84a4 4 0 0 0 4 4h88.83a4 4 0 0 0 4-4V59a4 4 0 0 0-4-4h-88.83a4 4 0 0 0-4 4v80.84z"/><path fill="none" stroke="#1a0007" stroke-linejoin="round" stroke-miterlimit="10" stroke-width="2" d="M288.35 139.84a4 4 0 0 0 4 4h88.83a4 4 0 0 0 4-4V59a4 4 0 0 0-4-4h-88.83a4 4 0 0 0-4 4v80.84z"/><path fill="none" stroke="#1a0007" stroke-linecap="round" stroke-linejoin="round" stroke-miterlimit="10" stroke-width="2" d="m295.48 122.12 31.78-.1m-31.78-7.45 31.78-.1m-31.78-7.45 31.78-.1m-31.78-7.45 56.35-.1m-56.35-7.45 56.35-.1m-56.35-7.45 56.35-.1"/><path fill="#190007" d="M289.34 142.89h95.24v-8.04h-95.24v8.04z"/><path fill="#fff" d="M336.04 120.39c0 1.1.9 2 2 2h11.73a2 2 0 0 0 2-2v-12.74a2 2 0 0 0-2-2h-11.73a2 2 0 0 0-2 2v12.74z"/><path fill="none" stroke="#1a0007" stroke-linecap="round" stroke-linejoin="round" stroke-miterlimit="10" stroke-width="2" d="M336.04 120.39c0 1.1.9 2 2 2h11.73a2 2 0 0 0 2-2v-12.74a2 2 0 0 0-2-2h-11.73a2 2 0 0 0-2 2v12.74z"/><path fill="#ff4d2b" d="M291.61 138.8a2.25 2.25 0 1 0 4.5 0 2.25 2.25 0 0 0-4.5 0z"/><path fill="#ff8900" d="M297.65 138.8a2.25 2.25 0 1 0 4.5 0 2.25 2.25 0 0 0-4.5 0z"/><path fill="none" stroke="#1a0007" stroke-linecap="round" stroke-linejoin="round" stroke-miterlimit="10" stroke-width="2" d="m288.35 134.02 96.83.1"/><path fill="#66f400" d="M303.7 138.8a2.25 2.25 0 1 0 4.49 0 2.25 2.25 0 0 0-4.5 0z"/><path fill="none" stroke="#1a0007" stroke-linecap="round" stroke-linejoin="round" stroke-miterlimit="10" stroke-width="2" d="m295.48 76.82 56.35-.1m-56.35-7.83 56.35-.1"/><path fill="none" stroke="#000" stroke-linecap="round" stroke-linejoin="round" stroke-miterlimit="10" stroke-width="2" d="M359.92 135.26V55.41"/><path fill="none" stroke="#1a0007" stroke-linecap="round" stroke-linejoin="round" stroke-miterlimit="10" stroke-width="2" d="M384.62 62.02h-24.48m25.04 13.77h-24.8"/><path fill="none" stroke="#000" stroke-linecap="round" stroke-linejoin="round" stroke-miterlimit="10" stroke-width="2" d="M364.28 129.84h5.2m-1.31-2.77h5.2m-5.2-2.77h5.2m-5.2-2.78h5.2m-9.09-2.78h5.2m-5.27-2.77h11.87m-7.91-2.77h11.87m-11.87-2.78h11.87m-11.87-2.78h11.87m-11.87-2.77h11.87m-15.76-2.77h11.87m-11.94-2.78h2.67m.73-2.78h2.67m0-2.77h2.67M367.61 91h2.67m-6.07-5.55h6.07m-2.67-2.78h6.07m-9.47-2.77h6.07m-6.07 8.32h2.67"/><path fill="none" stroke="#000" stroke-linecap="round" stroke-linejoin="round" stroke-miterlimit="10" d="m362.3 60.18 1.67-1.58-1.76-1.8"/><path fill="#19ea17" d="M39.63 142.96a7.74 7.74 0 0 0 15.48 0V64.8a7.74 7.74 0 0 0-15.48 0v78.15z"/><path fill="none" stroke="#000" stroke-linejoin="round" stroke-miterlimit="10" stroke-width="2" d="M39.63 142.96a7.74 7.74 0 0 0 15.48 0V64.8a7.74 7.74 0 1 0-15.48 0v78.15z"/><path fill="#19ea17" d="M70.59 142.96a7.74 7.74 0 0 0 15.48 0V64.8a7.74 7.74 0 0 0-15.48 0v78.15z"/><path fill="none" stroke="#000" stroke-linejoin="round" stroke-miterlimit="10" stroke-width="2" d="M70.59 142.96a7.74 7.74 0 0 0 15.48 0V64.8a7.74 7.74 0 1 0-15.48 0v78.15z"/><path fill="#19ea17" d="M55.1 150.66a7.74 7.74 0 1 0 15.48 0V72.51a7.74 7.74 0 0 0-15.48 0v78.15z"/><path fill="none" stroke="#000" stroke-linejoin="round" stroke-miterlimit="10" stroke-width="2" d="M55.1 150.66a7.74 7.74 0 0 0 15.48 0V72.51a7.74 7.74 0 1 0-15.48 0v78.15z"/><path d="M48.06 154.12c0 .53-.42.95-.94.95a.95.95 0 0 1-.95-.95v-6.07c0-.52.42-.94.95-.94.52 0 .94.42.94.94v6.07zm31.21 0c0 .53-.42.95-.94.95a.95.95 0 0 1-.95-.95v-6.07c0-.52.42-.94.95-.94.52 0 .94.42.94.94v6.07zM63.78 162a.95.95 0 1 1-1.9 0v-6.07a.95.95 0 1 1 1.9 0V162zm12.73-60.36a.99.99 0 1 1 0-1.98h3.63a.99.99 0 1 1 0 1.98h-3.63zm-31.21 0a.99.99 0 1 1 0-1.98h3.63a.99.99 0 1 1 0 1.98H45.3zm15.73-17.32a.99.99 0 1 1 0-1.98h3.63a1 1 0 0 1 .99 1c0 .54-.44.98-.99.98h-3.63zm0 25.76a.99.99 0 1 1 0-1.98h3.63a1 1 0 0 1 .99 1c0 .54-.44.98-.99.98h-3.63zm0 30.56a.99.99 0 0 1 0-1.98h3.63a.99.99 0 1 1 0 1.98h-3.63zm15.48-8.01a.99.99 0 1 1 0-1.98h3.63a.99.99 0 1 1 0 1.98h-3.63zm-30.94-.43a.99.99 0 1 1 0-1.98h3.63a1 1 0 0 1 1 .98 1 1 0 0 1-1 1h-3.63zm30.94-24.1a.99.99 0 1 1 0-1.98h3.63a1 1 0 0 1 .99 1 1 1 0 0 1-.99.99h-3.63zm-31.21 0a.99.99 0 1 1 0-1.98h3.63a1 1 0 0 1 .99 1 1 1 0 0 1-.99.99H45.3zm15.73-17.3a.99.99 0 1 1 0-1.98h3.63a.99.99 0 1 1 0 1.98h-3.63zm0 25.75a.99.99 0 1 1 0-1.98h3.63a1 1 0 0 1 .99 1c0 .54-.44.98-.99.98h-3.63zm0 30.55a.99.99 0 1 1 0-1.98h3.63c.55.01.99.45.99 1s-.44.99-.99.99h-3.63zm15.48-8a.99.99 0 1 1 0-1.98h3.63a.99.99 0 1 1 0 1.98h-3.63zm10.54-50.55a.99.99 0 1 1 0-1.98h3.63a.99.99 0 1 1 0 1.98h-3.63zm0 46.32a.99.99 0 1 1 0-1.98h3.63a1 1 0 0 1 1 1 1 1 0 0 1-1 .98h-3.63zM35.9 114.9a.99.99 0 1 1 0-1.98h3.63a.99.99 0 1 1 0 1.98H35.9zm51.15-20.16a.99.99 0 1 1 0-1.98h3.63a1 1 0 0 1 1 1 1 1 0 0 1-1 .98h-3.63zm0 49a.99.99 0 1 1 0-1.98h3.63a.99.99 0 1 1 0 1.98h-3.63zM35.9 123.76a.99.99 0 0 1 0-1.98h3.63a.99.99 0 1 1 0 1.98H35.9z"/><path fill="#f88b4a" d="M26.03 77.28c-.01.06.03.1.08.1h71.45c.05 0 .09-.04.08-.1L84.46 15.12c0-.02-.03-.42-.06-.42H39.27c-.03 0-.06.4-.06.42L26.03 77.28z"/><path fill="none" stroke="#000" stroke-linejoin="round" stroke-miterlimit="10" stroke-width="2" d="M26.03 77.28c-.01.06.03.1.08.1h71.45c.05 0 .09-.04.08-.1L84.46 15.12c0-.02-.03-.42-.06-.42H39.27c-.03 0-.06.4-.06.42L26.03 77.28z"/><path d="M45.57 138.66a.99.99 0 1 1 0-1.98h3.63a1 1 0 0 1 1 1 1 1 0 0 1-1 .98h-3.63z"/><path fill="#fff" d="M102 198.78a6 6 0 0 0 6 6h51.8a6 6 0 0 0 6-6V147.8a6 6 0 0 0-6-6h-17.68l1.74-17.26-17.11 17.26h-18.76a6 6 0 0 0-6 6v51z"/><path fill="none" stroke="#1a0007" stroke-linejoin="round" stroke-miterlimit="10" stroke-width="2" d="M102 198.78a6 6 0 0 0 6 6h51.8a6 6 0 0 0 6-6V147.8a6 6 0 0 0-6-6h-17.68l1.74-17.26-17.11 17.26h-18.76a6 6 0 0 0-6 6v51z"/><path fill="#f0edd3" d="M110.58 195.39h46.64v-41.1c-20.32-9.12-23.87 11.6-46.64 0v41.1z"/><path fill="none" stroke="#1a0007" stroke-linejoin="round" stroke-miterlimit="10" stroke-width="2" d="M110.58 195.39h46.64v-41.1c-20.32-9.12-23.87 11.6-46.64 0v41.1z"/><path fill="none" stroke="#1a0007" stroke-linecap="round" stroke-linejoin="round" stroke-miterlimit="10" stroke-width="2" d="M118.64 188.48h30.52m-30.52-8.2h30.52m-30.52-8.19h30.52m-30.52-8.2h30.52"/><path fill="#fff" d="M289.68 174.8c6.81-.07 69.92.07 77.25.15 26.66 5.83 16.58 45.25-9.39 37.37.4 21.33-15.64 30.37-28.84 29.78-14.08-.63-25.37-11.92-25.12-21.33-4.87 3.41-28.64 3.84-33.2-17.65-3.21-15.23 9.46-27 19.3-28.32z"/><path fill="none" stroke="#000" stroke-linejoin="round" stroke-miterlimit="10" stroke-width="2" d="M289.68 174.8c6.81-.07 69.92.07 77.25.15 26.66 5.83 16.58 45.25-9.39 37.37.4 21.33-15.64 30.37-28.84 29.78-14.08-.63-25.37-11.92-25.12-21.33-4.87 3.41-28.64 3.84-33.2-17.65-3.21-15.23 9.46-27 19.3-28.32z"/><path fill="red" d="M302.8 209.08a4.06 4.06 0 0 0 4.05 4.06h40.9a4.06 4.06 0 0 0 4.06-4.06v-21.37a4.06 4.06 0 0 0-4.06-4.06h-40.9a4.06 4.06 0 0 0-4.06 4.06v21.37z"/><path fill="none" stroke="#fc2900" stroke-linejoin="round" stroke-miterlimit="10" stroke-width="2.02884603" d="M302.8 209.08a4.06 4.06 0 0 0 4.05 4.06h40.9a4.06 4.06 0 0 0 4.06-4.06v-21.37a4.06 4.06 0 0 0-4.06-4.06h-40.9a4.06 4.06 0 0 0-4.06 4.06v21.37z"/><path fill="#fff" d="M322.96 207.77a1.52 1.52 0 0 1-2.26-1.33v-15.96c0-1.19 1.3-1.92 2.31-1.3l13.73 8.35c1 .6.97 2.06-.05 2.63l-13.73 7.6z"/><path fill="none" stroke="#1a0007" stroke-linejoin="round" stroke-miterlimit="10" stroke-width=".01014423" d="M322.96 207.77a1.52 1.52 0 0 1-2.26-1.33v-15.96c0-1.19 1.3-1.92 2.31-1.3l13.73 8.35c1 .6.97 2.06-.05 2.63l-13.73 7.6z"/><path fill="#fff" d="M494.44 228.64a6 6 0 0 1-6 6h-61.58a6 6 0 0 1-6-6v-52.92a6 6 0 0 1 6-6h21.3l-2-17.8 19.73 17.8h22.55a6 6 0 0 1 6 6v52.92z"/><path fill="none" stroke="#1a0007" stroke-linejoin="round" stroke-miterlimit="10" stroke-width="2" d="M494.44 228.64a6 6 0 0 1-6 6h-61.58a6 6 0 0 1-6-6v-52.92a6 6 0 0 1 6-6h21.3l-2-17.8 19.73 17.8h22.55a6 6 0 0 1 6 6v52.92z"/><path fill="none" stroke="#1a0007" stroke-linecap="round" stroke-linejoin="round" stroke-miterlimit="10" stroke-width="2" d="m448.94 181.59 15.72.05m-7.86 6.33v-6.33"/><path fill="#b2bbf7" d="M451.3 211.77a5.5 5.5 0 0 0 11 0v-13.94a5.5 5.5 0 0 0-11 0v13.94z"/><path fill="none" stroke="#1a0007" stroke-linejoin="round" stroke-miterlimit="10" stroke-width="2" d="M451.3 211.77a5.5 5.5 0 0 0 11 0v-13.94a5.5 5.5 0 1 0-11 0v13.94z"/><path fill="none" stroke="#1a0007" stroke-linecap="round" stroke-linejoin="round" stroke-miterlimit="10" stroke-width="2" d="M469.39 214.25s1.9-3.45-.1-6.91m-24.53 6.91s-1.9-3.45.1-6.91m29.72 10.42s3.83-6.96-.2-13.93m-34.81 13.93s-3.82-6.96.2-13.93m7.84-4.37s-1.46-10.98 9.26-10.98c10.73 0 9.67 10.98 9.67 10.98"/><path fill="#fff" d="M196.9 216.05a6 6 0 0 0 6 6h51.17a6 6 0 0 0 6-6v-51.31a6 6 0 0 0-6-6h-17.45l3.72-13.32-18.94 13.32h-18.5a6 6 0 0 0-6 6v51.31z"/><path fill="none" stroke="#1a0007" stroke-linejoin="round" stroke-miterlimit="10" stroke-width="2" d="M196.9 216.05a6 6 0 0 0 6 6h51.17a6 6 0 0 0 6-6v-51.31a6 6 0 0 0-6-6h-17.45l3.72-13.32-18.94 13.32h-18.5a6 6 0 0 0-6 6v51.31z"/><path fill="#f6de1d" d="M201.08 215.76c0 1.1.9 2 2 2h50.8a2 2 0 0 0 2-2V165.1a2 2 0 0 0-2-2h-50.8a2 2 0 0 0-2 2v50.66z"/><path fill="none" stroke="#f6de1d" stroke-linejoin="round" stroke-miterlimit="10" stroke-width="2" d="M201.08 215.76c0 1.1.9 2 2 2h50.8a2 2 0 0 0 2-2V165.1a2 2 0 0 0-2-2h-50.8a2 2 0 0 0-2 2v50.66z"/><path d="M238.08 175c-1.03-.51-2.02-1.15-3-1.74-.33-.2-1-.4-1.21-.7a9.28 9.28 0 0 1 3.91-4.02c.17-.09.35-.25.54-.3.87-.22 1.69-.61 2.6-.78 3.26-.59 7.58-.07 9.68 2.87a6.73 6.73 0 0 1 1.23 3.62 8.61 8.61 0 0 1-.53 3.65c-.97 2.42-3.67 3.93-5.98 4.85-1.24.5-3.77 1.38-4.45 2.53-.19.3-.27.66-.3 1.01-.14 1.93 1.24 2.44 2.9 2.44 1.37 0 2.1-1.24 2.84-2.17 1.02.51 1.92 1.27 2.9 1.85.3.19.9.44 1.12.73.04.05-.72 1.13-.8 1.23-.67.89-1.9 2.07-3.06 2.36-.7.17-1.36.4-2.1.48-2.95.35-6.02-.4-7.82-2.92a6.65 6.65 0 0 1-1.13-3.51c-.2-4.2 2.5-6.65 6.14-8.1 1.31-.53 2.69-1.07 3.86-1.85.4-.26.93-.66 1.05-1.15.1-.44.22-.89.16-1.35-.28-2.13-3.33-2.35-4.88-2-1.66.36-2.69 1.66-3.67 2.97zm-12.12 17.7c-.02-.02-.06-.03-.06-.06v-17.53c0-2.2-.78-3.2-3.03-3.2-.32 0-.85.12-1.12.33-.47.35-.91.72-1.24 1.2-.19.3-.4.9-.67 1.1h-.05c-.3-.07-.7-.42-.97-.59-1.07-.64-2.17-1.26-3.21-1.95.2-.6.66-1.2 1.04-1.7 1.83-2.34 4.4-3.05 7.3-3.05 2.12 0 4.32.93 5.65 2.6 1.11 1.39 1.5 3.4 1.5 5.12v17.62c0 .03.02.1-.05.1-1.68.03-3.36 0-5.1 0z"/><path fill="#fff" d="M559.77 69.08a6 6 0 0 1-6 6h-63.3a6 6 0 0 1-6-6V41.14a6 6 0 0 1 6-6h21.95l-2.06-10.95 20.2 10.95h23.21a6 6 0 0 1 6 6v27.94z"/><path fill="none" stroke="#1a0007" stroke-linejoin="round" stroke-miterlimit="10" stroke-width="2" d="M559.77 69.08a6 6 0 0 1-6 6h-63.3a6 6 0 0 1-6-6V41.14a6 6 0 0 1 6-6h21.95l-2.06-10.95 20.2 10.95h23.21a6 6 0 0 1 6 6v27.94z"/><path fill="none" stroke="#1a0007" stroke-linejoin="round" stroke-miterlimit="10" stroke-width="3.01706791" d="M512.9 61.41s-4.42 2.2-7.62-.32c-1.62-1.28-1.98-2.63-2.29-4.8-.25-1.75.14-5.3.93-6.38a5.3 5.3 0 0 1 3.85-1.97c2.71-.27 5.52.97 5.52.97m14.17 12.13s-2.22 1.13-4.35 1.14c-2.12.01-3.2-.25-4.1-1.6a2.84 2.84 0 0 1 .24-3.55c.85-1 1.5-1.33 3.43-2.07 1.32-.5 3-1.16 3.44-2.48.45-1.36-.06-2.49-.85-3.34-.38-.4-1.35-1-2.23-1.18a9.82 9.82 0 0 0-3.47-.06c-1.73.24-3.46 1.02-3.46 1.02M542 61.14s-2.22 1.13-4.34 1.14c-2.12 0-3.2-.26-4.1-1.61a2.84 2.84 0 0 1 .23-3.54c.86-1 1.5-1.33 3.44-2.07 1.32-.5 3-1.16 3.44-2.48.45-1.37-.06-2.49-.85-3.34a5 5 0 0 0-2.23-1.19 9.82 9.82 0 0 0-3.47-.06c-1.73.24-3.46 1.03-3.46 1.03"/><path fill="none" stroke="#1d498e" stroke-linejoin="round" stroke-miterlimit="10" stroke-width="4.52560186" d="M500.73 69.23s-3.55 0-4.6-.51c-1.36-.66-2.33-.37-1.69-3.85 1.12-6.07-.58-6.84-.96-7.15-.4-.33-1.81-1.25-2.13-1.33a13.7 13.7 0 0 1-2-.8l-1.7.01M543 69.25s3.55 0 4.6-.51c1.37-.67 2.34-.37 1.7-3.85-1.13-6.07.58-6.84.96-7.15.4-.33 1.8-1.25 2.12-1.33.34-.08 1.16-.4 2-.8l1.7.01"/><path fill="none" stroke="#1d498e" stroke-linejoin="round" stroke-miterlimit="10" stroke-width="4.52560186" d="M500.63 42.07s-1.44.04-3.17.19c-.5.04-1.5.37-2.14 1.02-.8.82-.73 2.19-.71 3.07.04 2.68.18 6-1.13 7.13-1.4 1.2-.98.8-2.13 1.32s-1.15.4-2 .8l-1.7-.01m55.45-13.5s1.45.03 3.17.18a4 4 0 0 1 2.15 1.03c.8.82.72 2.19.7 3.07-.04 2.68-.18 6 1.14 7.12 1.4 1.2.97.8 2.12 1.33 1.15.52 1.16.4 2 .8l1.7-.01"/><path fill="#fff" d="M177.53 122.1a6 6 0 0 0 6 6h75.6a6 6 0 0 0 6-6V99.2a6 6 0 0 0-6-6h-26.51l3.13-14.98-24.24 14.99h-27.98a6 6 0 0 0-6 6v22.88z"/><path fill="none" stroke="#1a0007" stroke-linejoin="round" stroke-miterlimit="10" stroke-width="2" d="M177.53 122.1a6 6 0 0 0 6 6h75.6a6 6 0 0 0 6-6V99.2a6 6 0 0 0-6-6h-26.51l3.13-14.98-24.24 14.99h-27.98a6 6 0 0 0-6 6v22.88z"/><path fill="#fe694b" d="M182.54 121.62c0 1.1.9 2 2 2h73.61a2 2 0 0 0 2-2V99.94a2 2 0 0 0-2-2h-73.6a2 2 0 0 0-2 2v21.68z"/><path fill="none" stroke="#fe694b" stroke-linejoin="round" stroke-miterlimit="10" stroke-width="2" d="M182.54 121.62c0 1.1.9 2 2 2h73.61a2 2 0 0 0 2-2V99.94a2 2 0 0 0-2-2h-73.6a2 2 0 0 0-2 2v21.68z"/><path fill="none" stroke="#fff" stroke-linecap="round" stroke-linejoin="round" stroke-miterlimit="10" stroke-width="2" d="M218.92 104.85v9.26m-13.95-.11v-9.25m-8.17 9.41v-9.24m7.17 3.48h-6.46m14.51 5.6v-9.08m3.28 9.24h-7m19.03-9.41-.03 9.25m-3.9-5.6 3.9 5.6m-8.36.13 3.7-5.73m.5-.03-.23-.01m8.98 5.87-.02-9.6m5.77-.04-5.72.02m17.66 11.98 5.5-5.58a2 2 0 0 0 .01-2.8l-5.56-5.68m-56.63 14.22-5.5-5.57a2 2 0 0 1-.01-2.8l5.56-5.69m46.82-2.04 7.07 18.7"/><path fill="#fff" d="M578.97 177.53a6 6 0 0 1-6 6h-63.08a6 6 0 0 1-6-6v-56.87a6 6 0 0 1 6-6h21.87l-2.06-18.88 20.14 18.87h23.13a6 6 0 0 1 6 6v56.88z"/><path fill="none" stroke="#1a0007" stroke-linejoin="round" stroke-miterlimit="10" stroke-width="2" d="M578.97 177.53a6 6 0 0 1-6 6h-63.08a6 6 0 0 1-6-6v-56.87a6 6 0 0 1 6-6h21.87l-2.06-18.88 20.14 18.87h23.13a6 6 0 0 1 6 6v56.88z"/><path fill="#fc2900" d="m517.89 163.97 23.4 8.56 23.39-8.21-3.38-31.06-20.02-11.66-20.01 11.52-3.38 30.85z"/><path fill="none" stroke="#fc2900" stroke-miterlimit="10" stroke-width="2" d="m517.89 163.97 23.4 8.56 23.39-8.21-3.38-31.06-20.02-11.66-20.01 11.52-3.38 30.85z"/><path fill="none" stroke="#fc2900" stroke-miterlimit="10" stroke-width="2" d="m514.16 167.04 27.17 9.64 27.37-9.76-4.23-36.12-23.13-13.4-23.24 13.48-3.94 36.16z"/><path fill="#fff" d="m530.8 133.68 3.97 8.46 13.32.08 3.64-8.58 6.93-.04-17.37 37.57-17.1-37.61 6.6.12z"/><path fill="none" stroke="#fff" stroke-miterlimit="10" stroke-width=".2" d="m530.8 133.68 3.97 8.46 13.32.08 3.64-8.58 6.93-.04-17.37 37.57-17.1-37.61 6.6.12z"/><path fill="#fc2900" d="m541.33 158.11-4.52-10.96 8.85.06-4.33 10.9z"/><path fill="none" stroke="#fc2900" stroke-miterlimit="10" stroke-width=".2" d="m541.33 158.11-4.52-10.96 8.85.06-4.33 10.9z"/><path fill="#fff" d="M132.74 19.99c6.82-.08 69.93.06 77.26.14 26.66 5.83 16.58 45.25-9.4 37.37.41 21.34-15.64 30.37-28.83 29.78-14.08-.62-25.37-11.91-25.12-21.33-4.87 3.42-28.65 3.84-33.2-17.65-3.22-15.22 9.46-26.99 19.3-28.31z"/><path fill="none" stroke="#000" stroke-linejoin="round" stroke-miterlimit="10" stroke-width="2" d="M132.74 19.99c6.82-.08 69.93.06 77.26.14 26.66 5.83 16.58 45.25-9.4 37.37.41 21.34-15.64 30.37-28.83 29.78-14.08-.62-25.37-11.91-25.12-21.33-4.87 3.42-28.65 3.84-33.2-17.65-3.22-15.22 9.46-26.99 19.3-28.31z"/><path fill="#f05033" d="M165.35 74.32a6.74 6.74 0 0 0 9.54 0l18.5-18.5a6.74 6.74 0 0 0 0-9.55l-18.45-18.45a6.74 6.74 0 0 0-9.54 0l-18.5 18.5a6.74 6.74 0 0 0 0 9.54l18.45 18.46z"/><path fill="#fff" d="M177.34 50.76a3.94 3.94 0 1 0 7.88 0 3.94 3.94 0 0 0-7.88 0zm-11.01-10.94a3.94 3.94 0 1 0 7.87 0 3.94 3.94 0 0 0-7.87 0zm.02 21.98a3.94 3.94 0 1 0 7.88 0 3.94 3.94 0 0 0-7.88 0z"/><path fill="none" stroke="#fff" stroke-linejoin="round" stroke-miterlimit="10" stroke-width="3.5" d="m161.58 70.62 19.26-19.25M170.43 39.6v23.2"/></g></g></svg>