<svg xmlns="http://www.w3.org/2000/svg" xml:space="preserve" viewBox="0 0 982.07971 325.43561"><defs><clipPath id="a" clipPathUnits="userSpaceOnUse"><path d="M0 3.394932h736.5598V244.0767H0Z"/></clipPath><clipPath id="b" clipPathUnits="userSpaceOnUse"><path d="M0 0h736.5598v244.0767H0Z"/></clipPath></defs><g clip-path="url(#a)" transform="matrix(1.33333 0 0 -1.33333 0 325.4356)"><g clip-path="url(#b)"><path fill="#1991e8" d="M4.112903 5.593678C-8.600101 5.593678 21.53233 135.2964 114.0627 122.0788c22.9358-3.2762 73.1524-38.25052 132.7246-38.25052C288.4026 117.1004 275.103 224.8745 398.6162 202.8204c37.9245-6.7717 55.405-38.1868 70.6351-65.3812 4.7173-8.4231 33.3169-41.37607 45.212-43.50004 55.9069-9.98256 123.9224 75.47624 179.7754 25.61144 18.8519-16.8307-30.137-72.17992-12.7436-88.74381 11.1298-10.59894 67.7937-13.72454 48.6299-27.411858"/><path fill="#49db56" d="m647.8413 74.08033 1.3412 8.04699c36.1226-6.75044 19.8371-50.96972-10.1643-46.34313l4.056 8.96283c22.0547-.14901 25.3749 27.327 4.7671 29.33331z"/><path fill="none" stroke="#000" stroke-linejoin="round" stroke-miterlimit="10" stroke-width="2" d="m647.8413 74.0803 1.3412 8.047c36.1226-6.7505 19.8371-50.9697-10.1643-46.3432l4.056 8.9629c22.0547-.149 25.3749 27.327 4.7671 29.3333z"/><path fill="#49db56" d="M597.9688 88.12261c.9065-4.89483.5091-34.06646 14.3092-71.3246 16.0213.07344-5.1851-.07383 25.4558 0 10.52 20.6907 13.5784 71.3246 13.5784 71.3246"/><path fill="none" stroke="#000" stroke-linejoin="round" stroke-miterlimit="10" stroke-width="2" d="M597.9688 88.1226c.9065-4.8949.5091-34.0665 14.3092-71.3246 16.0213.0734-5.1851-.0739 25.4558 0 10.52 20.6907 13.5784 71.3246 13.5784 71.3246"/><path fill="#fff" d="M593.0097 100.2218c0 1.1045.8954 2 2 2h59.4786c1.1046 0 2-.8955 2-2v-9.73548c0-1.10457-.8954-2-2-2h-59.4786c-1.1046 0-2 .89543-2 2v9.73548z"/><path fill="none" stroke="#000" stroke-linejoin="round" stroke-miterlimit="10" stroke-width="2" d="M593.0097 100.2217c0 1.1046.8954 2 2 2h59.4786c1.1046 0 2-.8954 2-2v-9.7354c0-1.1046-.8954-2-2-2h-59.4786c-1.1046 0-2 .8954-2 2v9.7354z"/><path fill="#fff" d="M606.4697 81.38503c0 .12006.0974.21739.2174.21739.1201 0 .2174-.09733.2174-.21739V64.49829c0-.12006-.0973-.21739-.2174-.21739-.12 0-.2174.09733-.2174.21739v16.88674z"/><path fill="none" stroke="#fff" stroke-linejoin="round" stroke-miterlimit="10" stroke-width="4" d="M606.4697 81.385c0 .1201.0974.2174.2174.2174.1201 0 .2174-.0973.2174-.2174V64.4983c0-.1201-.0973-.2174-.2174-.2174-.12 0-.2174.0973-.2174.2174V81.385z"/><path fill="none" stroke="#000" stroke-linecap="round" stroke-linejoin="round" stroke-miterlimit="10" stroke-width="2" d="M631.2904 143.798c-6.322-11.7074 8.5464-19.5514-.4683-37.2295m-6.6322 37.2295c-6.322-11.7074 8.5464-19.5514-.4683-37.2295m-6.6322 37.2295c-6.322-11.7074 8.5464-19.5514-.4683-37.2295"/><path fill="#1a0007" d="M256.6637 28.99299h222.4694c5.2128 0-.1231-13.87617-14.8399-13.87617H271.5037c-14.6046 0-18.2526 13.87617-14.84 13.87617z"/><path fill="none" stroke="#1a0007" stroke-linejoin="round" stroke-miterlimit="10" stroke-width=".0106314" d="M256.6637 28.993h222.4694c5.2128 0-.1231-13.8762-14.8399-13.8762H271.5037c-14.6046 0-18.2526 13.8762-14.84 13.8762z"/><path fill="#ffd72a" d="M273.5277 148.7105c0 4.4183 3.5817 8 8 8h173.5044c4.4183 0 8-3.5817 8-8V42.1338c0-4.41828-3.5817-8-8-8H281.5277c-4.4183 0-8 3.58172-8 8v106.5767z"/><path fill="none" stroke="#1a0007" stroke-linejoin="round" stroke-miterlimit="10" stroke-width="4" d="M273.5277 148.71044c0 4.41828 3.5817 8 8 8h173.5044c4.4183 0 8-3.58172 8-8V42.1338c0-4.4183-3.5817-8-8-8H281.5277c-4.4183 0-8 3.5817-8 8v106.57664z"/><path fill="none" stroke="#1991e8" stroke-linecap="round" stroke-linejoin="round" stroke-miterlimit="10" stroke-width="4" d="m349.6117 29.201 30 .1"/><path fill="#fff" d="M396.3983 144.0641c0 2.2092 1.7908 4 4 4h40.4366c2.2091 0 4-1.7908 4-4V51.60193c0-2.20914-1.7909-4-4-4h-40.4366c-2.2092 0-4 1.79086-4 4v92.46217z"/><path fill="none" stroke="#1a0007" stroke-linejoin="round" stroke-miterlimit="10" stroke-width="2" d="M396.3983 144.0641c0 2.20912 1.7908 3.99998 4 3.99998h40.4366c2.2091 0 4-1.79086 4-3.99998V51.6019c0-2.2091-1.7909-4-4-4h-40.4366c-2.2092 0-4 1.7909-4 4v92.4622z"/><path d="M397.3201 147.075h46.5713v-9.8396h-46.5713v9.8396z"/><path fill="#ff4d2b" d="M399.6622 142.4384c0 1.2406 1.0057 2.2463 2.2462 2.2463 1.2406 0 2.2463-1.0057 2.2463-2.2463 0-1.2406-1.0057-2.2463-2.2463-2.2463-1.2405 0-2.2462 1.0057-2.2462 2.2463z"/><path fill="#ff8900" d="M405.7026 142.4384c0 1.2406 1.0056 2.2463 2.2462 2.2463s2.2463-1.0057 2.2463-2.2463c0-1.2406-1.0057-2.2463-2.2463-2.2463-1.2406 0-2.2462 1.0057-2.2462 2.2463z"/><path fill="none" stroke="#1a0007" stroke-linecap="round" stroke-linejoin="round" stroke-miterlimit="10" stroke-width="2" d="m396.3983 137.4066 48.4366-.1"/><path fill="#66f400" d="M411.7429 142.4384c0 1.2406 1.0057 2.2463 2.2463 2.2463 1.2406 0 2.2463-1.0057 2.2463-2.2463 0-1.2406-1.0057-2.2463-2.2463-2.2463-1.2406 0-2.2463 1.0057-2.2463 2.2463z"/><path fill="none" stroke="#1a0007" stroke-linecap="round" stroke-linejoin="round" stroke-miterlimit="10" stroke-width="2" d="m404.5942 57.7034 31.7784-.1m-31.7784 21.994 31.7784-.1m-31.7784-14.2445 31.7784-.1M404.5942 87.147l31.7784-.1m-31.7784-14.2446 31.7784-.1m-31.7784 21.9941 31.7784-.1m-30.1462 23.2303c0 7.9475 6.4427 14.3902 14.3902 14.3902 7.9474 0 14.3901-6.4427 14.3901-14.3902s-6.4427-14.3901-14.3901-14.3901c-7.9475 0-14.3902 6.4426-14.3902 14.3901z"/><path d="M410.3145 120.3063h-1.43v2.158h3.978v-9.802h-2.548zm7.657-2.73c0-.4334.039-.8277.117-1.183.078-.3554.1885-.663.3315-.923.143-.26.3142-.4615.5135-.6045.1994-.143.4247-.2145.676-.2145.2427 0 .4659.0715.6695.2145.2037.143.3749.3445.5135.6045.1387.26.247.5676.325.923.078.3553.117.7496.117 1.183 0 .4246-.039.8168-.117 1.1765-.078.3596-.1863.6673-.325.923-.1386.2556-.3098.455-.5135.598-.2036.143-.4268.2145-.6695.2145-.2513 0-.4766-.0715-.676-.2145-.1993-.143-.3705-.3424-.5135-.598-.143-.2557-.2535-.5634-.3315-.923-.078-.3597-.117-.7519-.117-1.1765zm-2.522 0c0 .78.1019 1.4885.3055 2.1255.2037.637.4897 1.1808.858 1.6315.3684.4506.806.7995 1.313 1.0465.507.247 1.0682.3705 1.6835.3705.6067 0 1.1657-.1235 1.677-.3705.5114-.247.949-.5959 1.313-1.0465.364-.4507.6479-.9945.8515-1.6315.2037-.637.3055-1.3455.3055-2.1255 0-.78-.1018-1.4885-.3055-2.1255-.2036-.637-.4875-1.183-.8515-1.638-.364-.455-.8016-.806-1.313-1.053-.5113-.247-1.0703-.3705-1.677-.3705-.6153 0-1.1765.1235-1.6835.3705-.507.247-.9446.598-1.313 1.053-.3683.455-.6543 1.001-.858 1.638-.2036.637-.3055 1.3455-.3055 2.1255zm11.362 0c0-.4334.039-.8277.117-1.183.078-.3554.1885-.663.3315-.923.143-.26.3142-.4615.5135-.6045.1994-.143.4247-.2145.676-.2145.2427 0 .4659.0715.6695.2145.2037.143.3749.3445.5135.6045.1387.26.247.5676.325.923.078.3553.117.7496.117 1.183 0 .4246-.039.8168-.117 1.1765-.078.3596-.1863.6673-.325.923-.1386.2556-.3098.455-.5135.598-.2036.143-.4268.2145-.6695.2145-.2513 0-.4766-.0715-.676-.2145-.1993-.143-.3705-.3424-.5135-.598-.143-.2557-.2535-.5634-.3315-.923-.078-.3597-.117-.7519-.117-1.1765zm-2.522 0c0 .78.1019 1.4885.3055 2.1255.2037.637.4897 1.1808.858 1.6315.3684.4506.806.7995 1.313 1.0465.507.247 1.0682.3705 1.6835.3705.6067 0 1.1657-.1235 1.677-.3705.5114-.247.949-.5959 1.313-1.0465.364-.4507.6479-.9945.8515-1.6315.2037-.637.3055-1.3455.3055-2.1255 0-.78-.1018-1.4885-.3055-2.1255-.2036-.637-.4875-1.183-.8515-1.638-.364-.455-.8016-.806-1.313-1.053-.5113-.247-1.0703-.3705-1.677-.3705-.6153 0-1.1765.1235-1.6835.3705-.507.247-.9446.598-1.313 1.053-.3683.455-.6543 1.001-.858 1.638-.2036.637-.3055 1.3455-.3055 2.1255z"/><path fill="#fff" d="M288.3504 139.9163c0 2.2092 1.7909 4 4 4h88.8338c2.2091 0 4-1.7908 4-4V59.07811c0-2.20914-1.7909-4-4-4h-88.8338c-2.2091 0-4 1.79086-4 4v80.83819z"/><path fill="none" stroke="#1a0007" stroke-linejoin="round" stroke-miterlimit="10" stroke-width="2" d="M288.3504 139.9163c0 2.2091 1.7909 4 4 4h88.8338c2.2091 0 4-1.7909 4-4V59.0781c0-2.2092-1.7909-4-4-4h-88.8338c-2.2091 0-4 1.7908-4 4v80.8382z"/><path fill="none" stroke="#1a0007" stroke-linecap="round" stroke-linejoin="round" stroke-miterlimit="10" stroke-width="2" d="m295.4793 122.1958 31.7784-.1m-31.7784-7.4495 31.7784-.1m-31.7784-7.4496 31.7784-.1m-31.7784-7.4495 56.3495-.1m-56.3495-7.4496 56.3495-.1m-56.3495-7.4495 56.3495-.1"/><path fill="#190007" d="M289.3351 142.9648h95.2475v-8.0396h-95.2475v8.0396z"/><path fill="#fff" d="M336.0427 120.4621c0 1.1046.8955 2 2 2h11.7234c1.1045 0 2-.8954 2-2v-12.7392c0-1.1045-.8955-2-2-2h-11.7234c-1.1045 0-2 .8955-2 2v12.7392z"/><path fill="none" stroke="#1a0007" stroke-linecap="round" stroke-linejoin="round" stroke-miterlimit="10" stroke-width="2" d="M336.0427 120.4621c0 1.1046.8955 2 2 2h11.7234c1.1045 0 2-.8954 2-2v-12.7392c0-1.1046-.8955-2-2-2h-11.7234c-1.1045 0-2 .8954-2 2v12.7392z"/><path fill="#ff4d2b" d="M291.6143 138.8847c0 1.2406 1.0057 2.2463 2.2463 2.2463 1.2406 0 2.2463-1.0057 2.2463-2.2463 0-1.2406-1.0057-2.2463-2.2463-2.2463-1.2406 0-2.2463 1.0057-2.2463 2.2463z"/><path fill="#ff8900" d="M297.6547 138.8847c0 1.2406 1.0057 2.2463 2.2463 2.2463 1.2406 0 2.2462-1.0057 2.2462-2.2463 0-1.2406-1.0056-2.2463-2.2462-2.2463s-2.2463 1.0057-2.2463 2.2463z"/><path fill="none" stroke="#1a0007" stroke-linecap="round" stroke-linejoin="round" stroke-miterlimit="10" stroke-width="2" d="m288.3504 134.0957 96.8338.1"/><path fill="#66f400" d="M303.6951 138.8847c0 1.2406 1.0057 2.2463 2.2463 2.2463 1.2405 0 2.2462-1.0057 2.2462-2.2463 0-1.2406-1.0057-2.2463-2.2462-2.2463-1.2406 0-2.2463 1.0057-2.2463 2.2463z"/><path fill="none" stroke="#1a0007" stroke-linecap="round" stroke-linejoin="round" stroke-miterlimit="10" stroke-width="2" d="m295.4793 76.8986 56.3495-.1m-56.3495-7.8325 56.3495-.1"/><path fill="none" stroke="#000" stroke-linecap="round" stroke-linejoin="round" stroke-miterlimit="10" stroke-width="2" d="M359.916 135.339V55.4902"/><path fill="none" stroke="#1a0007" stroke-linecap="round" stroke-linejoin="round" stroke-miterlimit="10" stroke-width="2" d="M384.6223 62.0977h-24.4794m25.0413 13.7663h-24.8111"/><path fill="none" stroke="#000" stroke-linecap="round" stroke-linejoin="round" stroke-miterlimit="10" stroke-width="2" d="M364.2824 129.9198h5.1913m-1.3035-2.7748h5.1913m-5.1913-2.7749h5.1913m-5.1913-2.7748h5.1913m-9.0791-2.7749h5.1913m-5.2641-2.7748h11.8683m-7.9077-2.7749h11.8683m-11.8683-2.7748h11.8683m-11.8683-2.7748h11.8683m-11.8683-2.7749h11.8683m-15.7561-2.7748h11.8683m-11.9411-2.7749h2.6684m.7337-2.7748h2.6684m-.0002-2.7749h2.6684m-5.3366-2.7748h2.6684m-6.0705-5.5497h6.0703m-2.6682-2.7748h6.0703m-9.4724-2.7749h6.0703m-6.0703 8.3246h2.6684"/><path fill="none" stroke="#000" stroke-linecap="round" stroke-linejoin="round" stroke-miterlimit="10" d="m362.2975 60.2609 1.6705-1.5825-1.7584-1.8023"/><path fill="#19ea17" d="M39.62879 143.0359c0 4.2744 3.46507 7.7394 7.73945 7.7394s7.73945-3.465 7.73945-7.7394V64.88266c0-4.27438-3.46507-7.73944-7.73945-7.73944s-7.73945 3.46506-7.73945 7.73944v78.15324z"/><path fill="none" stroke="#000" stroke-linejoin="round" stroke-miterlimit="10" stroke-width="2" d="M39.62879 143.0359c0 4.27433 3.46507 7.7394 7.73945 7.7394s7.73945-3.46507 7.73945-7.7394V64.8826c0-4.2744-3.46507-7.7394-7.73945-7.7394s-7.73945 3.465-7.73945 7.7394v78.1533z"/><path fill="#19ea17" d="M70.58659 143.0359c0 4.2744 3.46507 7.7394 7.73945 7.7394 4.27437 0 7.73944-3.465 7.73944-7.7394V64.88266c0-4.27438-3.46507-7.73944-7.73944-7.73944-4.27438 0-7.73945 3.46506-7.73945 7.73944v78.15324z"/><path fill="none" stroke="#000" stroke-linejoin="round" stroke-miterlimit="10" stroke-width="2" d="M70.58659 143.0359c0 4.27433 3.46507 7.7394 7.73945 7.7394 4.27437 0 7.73944-3.46507 7.73944-7.7394V64.8826c0-4.2744-3.46507-7.7394-7.73944-7.7394-4.27438 0-7.73945 3.465-7.73945 7.7394v78.1533z"/><path fill="#19ea17" d="M55.10769 150.7366c0 4.2744 3.46507 7.7395 7.73945 7.7395s7.73945-3.4651 7.73945-7.7395V72.5834c0-4.27438-3.46507-7.73945-7.73945-7.73945s-7.73945 3.46507-7.73945 7.73945v78.1532z"/><path fill="none" stroke="#000" stroke-linejoin="round" stroke-miterlimit="10" stroke-width="2" d="M55.10769 150.73658c0 4.27438 3.46507 7.73945 7.73945 7.73945s7.73945-3.46507 7.73945-7.73945V72.5834c0-4.2744-3.46507-7.7395-7.73945-7.7395s-7.73945 3.4651-7.73945 7.7395v78.15318z"/><path d="M48.06329 154.201c0 .5224-.42351.946-.94594.946-.52244 0-.94595-.4236-.94595-.946v-6.0702c0-.5225.42351-.946.94595-.946.52243 0 .94594.4235.94594.946v6.0702zm31.20869 0c0 .5224-.42351.946-.94594.946-.52244 0-.94595-.4236-.94595-.946v-6.0702c0-.5225.42351-.946.94595-.946.52243 0 .94594.4235.94594.946v6.0702zm-15.49282 7.8758c0 .5224-.42352.9459-.94595.9459s-.94595-.4235-.94595-.9459v-6.0702c0-.5225.42352-.946.94595-.946s.94595.4235.94595.946v6.0702zm12.73189-60.3649c-.54551 0-.98773-.4422-.98773-.9877 0-.5455.44222-.98774.98773-.98774h3.62997c.54551 0 .98773.44224.98773.98774 0 .5455-.44222.9877-.98773.9877h-3.62997zm-31.20869 0c-.54551 0-.98773-.4422-.98773-.9877 0-.5455.44222-.98774.98773-.98774h3.62997c.54551 0 .98773.44224.98773.98774 0 .5455-.44222.9877-.98773.9877h-3.62997zm15.72979-17.31247c-.54551 0-.98773-.44222-.98773-.98773 0-.54551.44222-.98773.98773-.98773h3.62997c.54551 0 .98773.44222.98773.98773 0 .54551-.44222.98773-.98773.98773h-3.62997zm0 25.75817c-.54551 0-.98773-.4423-.98773-.9878s.44222-.9877.98773-.9877h3.62997c.54551 0 .98773.4422.98773.9877 0 .5455-.44222.9878-.98773.9878h-3.62997zm0 30.5571c-.54551 0-.98773-.4423-.98773-.9878s.44222-.9877.98773-.9877h3.62997c.54551 0 .98773.4422.98773.9877 0 .5455-.44222.9878-.98773.9878h-3.62997zm15.4789-8.0104c-.54551 0-.98773-.4422-.98773-.9877 0-.5455.44222-.9878.98773-.9878h3.62997c.54551 0 .98773.4423.98773.9878s-.44222.9877-.98773.9877h-3.62997zm-30.93647-.4353c-.54551 0-.98774-.4422-.98774-.9877 0-.5455.44223-.9877.98774-.9877h3.62996c.54551 0 .98774.4422.98774.9877 0 .5455-.44223.9877-.98774.9877h-3.62996zm30.93647-24.0869c-.54551 0-.98773-.4422-.98773-.9877 0-.5455.44222-.9878.98773-.9878h3.62997c.54551 0 .98773.4423.98773.9878s-.44222.9877-.98773.9877h-3.62997zm-31.20869 0c-.54551 0-.98773-.4422-.98773-.9877 0-.5455.44222-.9878.98773-.9878h3.62997c.54551 0 .98773.4423.98773.9878s-.44222.9877-.98773.9877h-3.62997zm15.72979-17.3125c-.54551 0-.98773-.44222-.98773-.98773 0-.54551.44222-.98773.98773-.98773h3.62997c.54551 0 .98773.44222.98773.98773 0 .54551-.44222.98773-.98773.98773h-3.62997zm0 25.7581c-.54551 0-.98773-.4422-.98773-.9877 0-.5455.44222-.9877.98773-.9877h3.62997c.54551 0 .98773.4422.98773.9877 0 .5455-.44222.9877-.98773.9877h-3.62997zm0 30.5571c-.54551 0-.98773-.4422-.98773-.9877 0-.5455.44222-.9877.98773-.9877h3.62997c.54551 0 .98773.4422.98773.9877 0 .5455-.44222.9877-.98773.9877h-3.62997zm15.4789-8.0103c-.54551 0-.98773-.4423-.98773-.9878s.44222-.9877.98773-.9877h3.62997c.54551 0 .98773.4422.98773.9877 0 .5455-.44222.9878-.98773.9878h-3.62997zm10.54217-50.55225c-.54551 0-.98774-.44222-.98774-.98773 0-.54551.44223-.98774.98774-.98774h3.62997c.54551 0 .98773.44223.98773.98774 0 .54551-.44222.98773-.98773.98773h-3.62997zm0 46.32945c-.54551 0-.98774-.4423-.98774-.9878s.44223-.9877.98774-.9877h3.62997c.54551 0 .98773.4422.98773.9877 0 .5455-.44222.9878-.98773.9878h-3.62997zm-51.15119-19.9794c-.54551 0-.98773-.4422-.98773-.9877 0-.5455.44222-.9878.98773-.9878H39.532c.54551 0 .98773.4423.98773.9878s-.44222.9877-.98773.9877h-3.62997zm51.15119-20.15177c-.54551 0-.98774-.44222-.98774-.98773 0-.54551.44223-.98773.98774-.98773h3.62997c.54551 0 .98773.44222.98773.98773 0 .54551-.44222.98773-.98773.98773h-3.62997zm0 48.99327c-.54551 0-.98774-.4422-.98774-.9877 0-.5455.44223-.9878.98774-.9878h3.62997c.54551 0 .98773.4423.98773.9878s-.44222.9877-.98773.9877h-3.62997zm-51.15119-19.9794c-.54551 0-.98773-.4422-.98773-.9877 0-.5455.44222-.9877.98773-.9877H39.532c.54551 0 .98773.4422.98773.9877 0 .5455-.44222.9877-.98773.9877h-3.62997z"/><path fill="#f88b4a" d="M26.03147 77.36042c-.01101.05196.02862.10088.08173.10088h71.44222c.05312 0 .09275-.04892.08173-.10088L84.45953 15.19885c-.0019-.02275-.02877-.42098-.06135-.42098H39.27044c-.03258 0-.0595.39823-.06134.42098L26.03147 77.36042z"/><path fill="none" stroke="#000" stroke-linejoin="round" stroke-miterlimit="10" stroke-width="2" d="M26.03147 77.3604c-.01101.0519.02862.1009.08173.1009h71.44222c.05312 0 .09275-.049.08173-.1009L84.45953 15.1988c-.0019-.0227-.02877-.421-.06135-.421H39.27044c-.03258 0-.0595.3983-.06134.421L26.03147 77.3604z"/><path d="M45.57458 138.7392c-.54551 0-.98774-.4422-.98774-.9877 0-.5456.44223-.9878.98774-.9878h3.62996c.54551 0 .98774.4422.98774.9878 0 .5455-.44223.9877-.98774.9877h-3.62996z"/><path fill="#fff" d="M101.9917 198.8576c0 3.3137 2.6863 6 6 6h51.81c3.3137 0 6-2.6863 6-6v-50.987c0-3.3136-2.6862-5.9999-5.9999-6l-17.6843-.0004 1.7453-17.2643-17.1177 17.2636h-18.7534c-3.3137 0-6 2.6863-6 6v50.9881z"/><path fill="none" stroke="#1a0007" stroke-linejoin="round" stroke-miterlimit="10" stroke-width="2" d="M101.9917 198.85756c0 3.3137 2.6863 6 6 6h51.81c3.3137 0 6-2.6863 6-6v-50.98699c0-3.31365-2.6862-5.99997-5.9999-5.99997l-17.6843-.0004 1.7453-17.2643-17.1177 17.2636h-18.7534c-3.3137 0-6 2.68626-6 5.99997v50.98809z"/><path fill="#f0edd3" d="M110.5783 195.4656h46.6368v-41.0958c-20.317-9.1196-23.8684 11.5937-46.6368 0v41.0958z"/><path fill="none" stroke="#1a0007" stroke-linejoin="round" stroke-miterlimit="10" stroke-width="2" d="M110.5783 195.46556h46.6368v-41.09581c-20.317-9.11958-23.8684 11.59374-46.6368 0v41.09581z"/><path fill="none" stroke="#1a0007" stroke-linecap="round" stroke-linejoin="round" stroke-miterlimit="10" stroke-width="2" d="M118.636 188.56065h30.5214m-30.5214-8.19905h30.5214m-30.5214-8.19906h30.5214m-30.5214-8.19905h30.5214"/><path fill="#fff" d="M289.6766 174.8811c6.8149-.0785 69.9256.0616 77.2573.1461 26.6598 5.8267 16.5803 45.2503-9.3903 37.3664.4047 21.3355-15.6472 30.369-28.8406 29.783-14.0811-.6255-25.3689-11.9171-25.1231-21.3322-4.8702 3.4146-28.6437 3.8389-33.1922-17.6489-3.2226-15.2242 9.4566-26.9923 19.2889-28.3144z"/><path fill="none" stroke="#000" stroke-linejoin="round" stroke-miterlimit="10" stroke-width="2" d="M289.6766 174.88109c6.8149-.07856 69.9256.06157 77.2573.14604 26.6598 5.8267 16.5803 45.25031-9.3903 37.36641.4047 21.33551-15.6472 30.369046-28.8406 29.783021-14.0811-.625453-25.3689-11.917111-25.1231-21.332191-4.8702 3.41459-28.6437 3.83887-33.1922-17.64892-3.2226-15.2242 9.4566-26.99231 19.2889-28.31436z"/><path fill="red" d="M302.7941 209.1579c0 2.241 1.8166 4.0577 4.0576 4.0577h40.9011c2.241 0 4.0577-1.8167 4.0577-4.0577v-21.3716c0-2.241-1.8167-4.0577-4.0577-4.0577h-40.9011c-2.241 0-4.0576 1.8167-4.0576 4.0577v21.3716z"/><path fill="none" stroke="#fc2900" stroke-linejoin="round" stroke-miterlimit="10" stroke-width="2.02884603" d="M302.7941 209.15787c0 2.241 1.8166 4.05769 4.0576 4.05769h40.9011c2.241 0 4.0577-1.81669 4.0577-4.05769v-21.37161c0-2.241-1.8167-4.05769-4.0577-4.05769h-40.9011c-2.241 0-4.0576 1.81669-4.0576 4.05769v21.37161z"/><path fill="#fff" d="M322.957 207.8448c-1.0142.5621-2.2593-.1713-2.2593-1.3309v-15.96c0-1.1869 1.2984-1.9169 2.3125-1.3l13.7282 8.3511c.9976.6068.9682 2.0648-.0532 2.6308l-13.7282 7.609z"/><path fill="none" stroke="#1a0007" stroke-linejoin="round" stroke-miterlimit="10" stroke-width=".01014423" d="M322.957 207.84477c-1.0142.56212-2.2593-.17132-2.2593-1.33088v-15.96006c0-1.1869 1.2984-1.91685 2.3125-1.3l13.7282 8.35109c.9976.60687.9682 2.06482-.0532 2.63088l-13.7282 7.60897z"/><path fill="#fff" d="M494.4361 228.7182c0 3.3137-2.6863 6-6 6h-61.5795c-3.3137 0-6-2.6863-6-6v-52.9205c0-3.3137 2.6862-5.9999 5.9999-6l21.3105-.0004-2.0126-17.7943 19.7385 17.7936h22.5432c3.3137 0 6 2.6862 6 6v52.9216z"/><path fill="none" stroke="#1a0007" stroke-linejoin="round" stroke-miterlimit="10" stroke-width="2" d="M494.4361 228.71817c0 3.31371-2.6863 5.999997-6 5.999997h-61.5795c-3.3137 0-6-2.686287-6-5.999997v-52.9205c0-3.31366 2.6862-5.99993 5.9999-6l21.3105-.00043-2.0126-17.79423 19.7385 17.7935h22.5432c3.3137 0 6 2.68629 6 6v52.92166z"/><path fill="none" stroke="#1a0007" stroke-linecap="round" stroke-linejoin="round" stroke-miterlimit="10" stroke-width="2" d="m448.9377 181.66573 15.7229.04997m-7.8678 6.32981.006-6.32981"/><path fill="#b2bbf7" d="M451.2965 211.8457c0 3.039 2.4636 5.5026 5.5026 5.5026s5.5026-2.4636 5.5026-5.5026v-13.9431c0-3.039-2.4636-5.5026-5.5026-5.5026s-5.5026 2.4636-5.5026 5.5026v13.9431z"/><path fill="none" stroke="#1a0007" stroke-linejoin="round" stroke-miterlimit="10" stroke-width="2" d="M451.2965 211.84569c0 3.039 2.4636 5.5026 5.5026 5.5026s5.5026-2.4636 5.5026-5.5026v-13.94312c0-3.03901-2.4636-5.5026-5.5026-5.5026s-5.5026 2.46359-5.5026 5.5026v13.94312z"/><path fill="none" stroke="#1a0007" stroke-linecap="round" stroke-linejoin="round" stroke-miterlimit="10" stroke-width="2" d="M469.3905 214.33096s1.8972-3.45739-.1-6.91477m-24.5285 6.91477s-1.8973-3.45739.1-6.91477m29.723 10.42288s3.8223-6.9655-.2015-13.93099m-34.816 13.93099s-3.8224-6.9655.2014-13.93099m7.841-4.36762s-1.4562-10.98032 9.2647-10.98032 9.6679 10.98032 9.6679 10.98032"/><path fill="#fff" d="M196.8973 216.1298c0 3.3137 2.6863 6 6 6h51.1747c3.3137 0 6-2.6863 6-6v-51.314c0-3.3137-2.6862-6-5.9999-6l-17.4485-.0004 3.7179-13.3228-18.9373 13.322h-18.5069c-3.3137 0-6 2.6863-6 6v51.3152z"/><path fill="none" stroke="#1a0007" stroke-linejoin="round" stroke-miterlimit="10" stroke-width="2" d="M196.8973 216.12971c0 3.31371 2.6863 6 6 6h51.1747c3.3137 0 6-2.68629 6-6v-51.31399c0-3.31366-2.6862-5.99993-5.9999-6l-17.4485-.0004 3.7179-13.32274-18.9373 13.32203h-18.5069c-3.3137 0-6 2.68629-6 6v51.3151z"/><path fill="#f6de1d" d="M201.083 215.8374c0 1.1046.8954 2 2 2h50.8033c1.1046 0 2-.8954 2-2V165.181c0-1.1046-.8954-2-2-2H203.083c-1.1046 0-2 .8954-2 2v50.6564z"/><path fill="none" stroke="#f6de1d" stroke-linejoin="round" stroke-miterlimit="10" stroke-width="2" d="M201.083 215.83736c0 1.10457.8954 2 2 2h50.8033c1.1046 0 2-.89543 2-2v-50.65638c0-1.10457-.8954-2-2-2H203.083c-1.1046 0-2 .89543-2 2v50.65638z"/><path d="M238.0772 175.0767c-1.0258-.5129-2.0197-1.1528-3.0033-1.743-.3193-.1915-.9851-.4017-1.2067-.6972-.0544-.0725.7802-1.2906.8581-1.3944.8203-1.0938 1.8491-2.0239 3.0569-2.6278.1699-.085.3434-.2468.5363-.295.8735-.2184 1.6915-.6123 2.6011-.7777 3.2585-.5924 7.5783-.0734 9.6802 2.8693.7475 1.0464 1.1838 2.3271 1.2335 3.62.0494 1.2833-.0625 2.4623-.5363 3.6469-.9658 2.4145-3.664 3.9272-5.9798 4.8535-1.2376.4951-3.7632 1.3739-4.4513 2.5206-.1838.3064-.2686.6642-.2949 1.019-.1423 1.9212 1.2414 2.4402 2.896 2.4402 1.3729 0 2.0996-1.2435 2.8424-2.172 1.0157.5078 1.9216 1.2655 2.896 1.8502.3104.1862.91.4356 1.1263.724.0387.0517-.7262 1.1292-.8045 1.2335-.6674.89-1.8957 2.0695-3.0569 2.3598-.6974.1743-1.3646.3971-2.0916.4826-2.9544.3476-6.0297-.4024-7.83-2.9228-.7171-1.0039-1.0694-2.2903-1.1262-3.5128-.1949-4.1885 2.506-6.6443 6.1406-8.0982 1.3097-.5239 2.685-1.066 3.8614-1.8502.3891-.2594.922-.658 1.0458-1.1531.109-.4362.2222-.8812.1609-1.3407-.2851-2.1378-3.3291-2.3559-4.8804-2.0112-1.6638.3698-2.6879 1.6622-3.6736 2.9765zm-12.1205 17.698c-.0179-.0179-.0535-.0283-.0536-.0536-.0178-5.8457.009-11.6914 0-17.5371-.003-2.2017-.7817-3.191-3.0301-3.191-.3226 0-.8534.1171-1.1263.3217-.4628.3472-.907.7171-1.2335 1.2067-.191.2865-.3974.8948-.6703 1.0994-.0143.0108-.0363.004-.0537 0-.2998-.0749-.6914-.4255-.9653-.5899-1.0727-.6436-2.1772-1.2637-3.2178-1.9575.1981-.5945.6654-1.2003 1.0458-1.6893 1.8255-2.3472 4.4012-3.057 7.2937-3.057 2.1289 0 4.3216.9306 5.658 2.6011 1.1107 1.3884 1.5016 3.3894 1.5016 5.1217v17.6175c0 .0326.0127.1066-.0536.1073-1.6803.0177-3.3608 0-5.0949 0z"/><path fill="#fff" d="M559.7722 69.15988c0 3.31371-2.6863 6-6 6h-63.3088c-3.3137 0-6-2.68629-6-6V41.21577c0-3.31368 2.6863-5.99996 6-6l21.9522-.00026-2.0598-10.9484 20.2024 10.94795h23.214c3.3137 0 6 2.68629 6 6v27.94482z"/><path fill="none" stroke="#1a0007" stroke-linejoin="round" stroke-miterlimit="10" stroke-width="2" d="M559.7722 69.1598c0 3.3138-2.6863 6-6 6h-63.3088c-3.3137 0-6-2.6862-6-6V41.2157c0-3.3136 2.6863-5.9999 6-6l21.9522-.0002-2.0598-10.9484 20.2024 10.9479h23.214c3.3137 0 6 2.6863 6 6v27.9448z"/><path fill="none" stroke="#1a0007" stroke-linejoin="round" stroke-miterlimit="10" stroke-width="3.01706791" d="M512.9006 61.4893s-4.4254 2.2004-7.6207-.3196c-1.6225-1.2796-1.9773-2.6366-2.2901-4.8031-.2524-1.7476.1445-5.2951.932-6.3771.9151-1.2573 2.4137-1.8322 3.8461-1.9737 2.7163-.2683 5.5229.9678 5.5229.9678m14.1649 12.1334s-2.2204 1.1318-4.3435 1.1422c-2.123.0105-3.2023-.2549-4.0953-1.6087-.893-1.3538-.5059-2.6792.2291-3.5389.8527-.9973 1.4998-1.3318 3.4363-2.071 1.3223-.5047 2.9967-1.1638 3.4365-2.4849.454-1.3639-.0541-2.4851-.8495-3.3362-.3819-.4086-1.345-.9972-2.2277-1.1851-.5879-.1252-1.7351-.3035-3.4674-.0625-1.7322.2409-3.4616 1.0262-3.4616 1.0262m25.8909 12.2152s-2.2204 1.1318-4.3435 1.1423c-2.123.0104-3.2023-.255-4.0953-1.6088-.893-1.3538-.5059-2.6792.2291-3.5389.8527-.9973 1.4998-1.3318 3.4363-2.071 1.3223-.5047 2.9967-1.1638 3.4365-2.4848.454-1.3639-.0541-2.4851-.8495-3.3362-.3819-.4087-1.345-.9973-2.2277-1.1852-.5879-.1251-1.7351-.3034-3.4674-.0625-1.7322.2409-3.4616 1.0263-3.4616 1.0263"/><path fill="none" stroke="#1d498e" stroke-linejoin="round" stroke-miterlimit="10" stroke-width="4.52560186" d="M500.7324 69.3086s-3.5493-.008-4.5995-.5153c-1.3673-.6609-2.3318-.3648-1.6898-3.8469 1.1196-6.0719-.5831-6.8391-.9621-7.1508-.4002-.3291-1.813-1.2503-2.1275-1.3239-.338-.0792-1.156-.4028-1.9946-.7986l-1.7103.008m55.3558 13.6459s3.5493-.008 4.5994-.5153c1.3674-.6609 2.3319-.3648 1.6898-3.8469-1.1195-6.0719.5831-6.8392.9621-7.1508.4002-.3292 1.8131-1.2503 2.1276-1.324.338-.0791 1.156-.4027 1.9945-.7986l1.7104.008"/><path fill="none" stroke="#1d498e" stroke-linejoin="round" stroke-miterlimit="10" stroke-width="4.52560186" d="M500.628 42.1439s-1.4414.0388-3.165.1879c-.4963.043-1.5046.3775-2.1427 1.0288-.8029.8193-.7261 2.183-.711 3.0688.0455 2.6765.1837 5.9987-1.1283 7.1231-1.4015 1.2011-.9788.804-2.1275 1.3239-1.1487.5199-1.156.4028-1.9946.7986l-1.7103-.008m55.4602-13.5048s1.4413.0389 3.1649.188c.4964.0429 1.5046.3774 2.1428 1.0288.8029.8193.726 2.183.711 3.0687-.0456 2.6766-.1837 5.9987 1.1282 7.1231 1.4016 1.2012.9788.8041 2.1276 1.324 1.1487.5199 1.156.4027 1.9945.7986l1.7104-.008"/><path fill="#fff" d="M177.526 122.1685c0 3.3137 2.6863 6 6 6h75.6108c3.3137 0 6-2.6863 6-6V99.28277c0-3.31369-2.6862-5.99997-5.9999-6l-26.5184-.00024 3.1299-14.98104-24.2361 14.98064H183.526c-3.3137 0-6 2.6863-6 6v22.88637z"/><path fill="none" stroke="#1a0007" stroke-linejoin="round" stroke-miterlimit="10" stroke-width="2" d="M177.526 122.1685c0 3.3137 2.6863 6 6 6h75.6108c3.3137 0 6-2.6863 6-6V99.2827c0-3.3137-2.6862-5.9999-5.9999-6l-26.5184-.0002 3.1299-14.9811-24.2361 14.9807H183.526c-3.3137 0-6 2.6863-6 6v22.8864z"/><path fill="#fe694b" d="M182.5406 121.6991c0 1.1046.8954 2 2 2h73.6128c1.1045 0 2-.8954 2-2v-21.6813c0-1.10458-.8955-2.00001-2-2.00001h-73.6128c-1.1046 0-2 .89543-2 2.00001v21.6813z"/><path fill="none" stroke="#fe694b" stroke-linejoin="round" stroke-miterlimit="10" stroke-width="2" d="M182.5406 121.6991c0 1.1046.8954 2 2 2h73.6128c1.1045 0 2-.8954 2-2v-21.6813c0-1.1046-.8955-2-2-2h-73.6128c-1.1046 0-2 .8954-2 2v21.6813z"/><path fill="none" stroke="#fff" stroke-linecap="round" stroke-linejoin="round" stroke-miterlimit="10" stroke-width="2" d="M218.9206 104.9294v9.2529m-13.9542-.1079v-9.2468m-8.1731 9.4131v-9.2469m7.1744 3.4743h-6.4554m14.504 5.6063v-9.0806m3.277 9.2469h-6.9955m19.0339-9.4131-.034 9.2468m-3.9052-5.6063 3.9052 5.6063m-8.3527.1359 3.6919-5.729m.4995-.0354-.2254-.0132m8.9772 5.8781-.0159-9.5956m5.7701-.0522-5.7223.0203m17.6645 11.9793 5.5001-5.5721c.7666-.7766.7691-2.0244.006-2.8042l-5.5643-5.683m-56.6309 14.2248-5.5-5.5722c-.7666-.7766-.7691-2.0244-.006-2.8041l5.5643-5.683m46.8155-2.0429 7.0732 18.6974"/><path fill="#fff" d="M578.9662 177.6075c0 3.3137-2.6863 6-6 6h-63.0727c-3.3137 0-6-2.6863-6-6v-56.8751c0-3.3137 2.6862-6 5.9999-6l21.8647-.0005-2.0534-18.87819 20.139 18.87739h23.1225c3.3137 0 6 2.6863 6 6v56.8764z"/><path fill="none" stroke="#1a0007" stroke-linejoin="round" stroke-miterlimit="10" stroke-width="2" d="M578.9662 177.60747c0 3.31371-2.6863 6-6 6h-63.0727c-3.3137 0-6-2.68629-6-6V120.7323c0-3.3136 2.6862-5.9999 5.9999-6l21.8647-.0004-2.0534-18.8782 20.139 18.8774h23.1225c3.3137 0 6 2.6863 6 6v56.87637z"/><path fill="#fc2900" d="m517.8856 164.0476 23.3963 8.5579 23.3962-8.2128-3.3817-31.057-20.0145-11.6637-20.0146 11.5256-3.3817 30.85z"/><path fill="none" stroke="#fc2900" stroke-miterlimit="10" stroke-width="2" d="m517.8856 164.04757 23.3963 8.55793 23.3962-8.21285-3.3817-31.05705-20.0145-11.6636-20.0146 11.5256-3.3817 30.84997z"/><path fill="none" stroke="#fc2900" stroke-miterlimit="10" stroke-width="2" d="m514.159 167.11273 27.1742 9.64069 27.3674-9.75324-4.234-36.12618-23.1311-13.4021-23.2368 13.4889-3.9397 36.15193z"/><path fill="#fff" d="m530.7989 133.7554 3.9681 8.4625 13.3215.081 3.6441-8.584 6.9239-.0405-17.3705 37.5753-17.087-37.6158 6.5999.1215z"/><path fill="none" stroke="#fff" stroke-miterlimit="10" stroke-width=".2" d="m530.7989 133.7553 3.9681 8.4626 13.3215.081 3.6441-8.5841 6.9239-.0405-17.3705 37.5754-17.087-37.6159 6.5999.1215z"/><path fill="#fc2900" d="m541.3347 158.1872-4.5228-10.9653 8.8503.0651-4.3275 10.9002z"/><path fill="none" stroke="#fc2900" stroke-miterlimit="10" stroke-width=".2" d="m541.3347 158.18714-4.5228-10.96524 8.8503.06508-4.3275 10.90016z"/><path fill="#fff" d="M132.7423 20.06459c6.815-.07856 69.9256.06156 77.2573.14603 26.6599 5.8267 16.5804 45.25032-9.3902 37.36642.4047 21.33551-15.6472 30.36904-28.8407 29.78302-14.0811-.62545-25.3688-11.91712-25.123-21.33219-4.8702 3.41458-28.6438 3.83887-33.1922-17.64892-3.2226-15.2242 9.4566-26.99231 19.2888-28.31436z"/><path fill="none" stroke="#000" stroke-linejoin="round" stroke-miterlimit="10" stroke-width="2" d="M132.7423 20.0646c6.815-.0786 69.9256.0615 77.2573.146 26.6599 5.8267 16.5804 45.2503-9.3902 37.3664.4047 21.3355-15.6472 30.369-28.8407 29.783-14.0811-.6254-25.3688-11.9171-25.123-21.3322-4.8702 3.4146-28.6438 3.8389-33.1922-17.6489-3.2226-15.2242 9.4566-26.9923 19.2888-28.3143z"/><path fill="#f05033" d="M165.3533 74.39199c2.6336 2.63357 6.9035 2.63357 9.537 0l18.5042-18.50419c2.6336-2.63358 2.6336-6.90346 0-9.53704l-18.4546-18.45467c-2.6336-2.63358-6.9035-2.63358-9.5371 0l-18.5042 18.50419c-2.6335 2.63358-2.6335 6.90346 0 9.53704l18.4547 18.45467z"/><path fill="#fff" d="M177.3411 50.83623c0 2.17481 1.763 3.93784 3.9378 3.93784 2.1748 0 3.9379-1.76303 3.9379-3.93784s-1.7631-3.93785-3.9379-3.93785c-2.1748 0-3.9378 1.76304-3.9378 3.93785zm-11.0129-10.93481c0 2.17481 1.763 3.93784 3.9378 3.93784 2.1748 0 3.9378-1.76303 3.9378-3.93784s-1.763-3.93784-3.9378-3.93784c-2.1748 0-3.9378 1.76303-3.9378 3.93784zm.026 21.97375c0 2.17481 1.763 3.93784 3.9378 3.93784 2.1749 0 3.9379-1.76303 3.9379-3.93784s-1.763-3.93784-3.9379-3.93784c-2.1748 0-3.9378 1.76303-3.9378 3.93784z"/><path fill="none" stroke="#fff" stroke-linejoin="round" stroke-miterlimit="10" stroke-width="3.5" d="m161.5836 70.7014 19.2541-19.2541m-10.4083-11.768v23.1836"/></g></g></svg>